<svg width="50" height="50" viewBox="0 0 50 50" fill="none" xmlns="http://www.w3.org/2000/svg">
<path d="M36.9676 16.0092C37.0499 16.0092 37.1338 16.0113 37.2241 16.0158C37.323 16.0205 37.4219 16.005 37.5147 15.9704C37.6074 15.9358 37.6923 15.8827 37.764 15.8145C37.8357 15.7459 37.8928 15.6635 37.9318 15.5722C37.9708 15.4809 37.9908 15.3827 37.9908 15.2835V9.69697C37.9908 9.29209 37.6636 8.96387 37.2599 8.96387H0.730957C0.327246 8.96387 0 9.29209 0 9.69697V35.7275C0 36.1324 0.327246 36.4606 0.730957 36.4606H28.4088C28.5943 36.4606 28.773 36.3898 28.9084 36.2627C30.3907 34.8708 32.2029 33.8613 34.1486 33.3435L34.1493 33.3433C34.2585 33.3143 34.3683 33.2869 34.4782 33.261L34.5381 33.2475C34.6253 33.2273 34.7127 33.2083 34.7997 33.1902L34.8899 33.1721C34.9718 33.1559 35.0538 33.1406 35.1359 33.1261L35.2199 33.1112C35.328 33.0929 35.4362 33.0761 35.5447 33.0607L35.5458 33.0606C35.6555 33.0453 35.7654 33.0319 35.8757 33.0197L35.9646 33.0107C36.1581 32.9908 36.3522 32.9758 36.5466 32.9659L36.6481 32.9606C36.6934 32.9587 36.7388 32.9574 36.7938 32.9558C36.8526 32.9538 36.911 32.9447 36.9676 32.9287C37.0232 32.9441 37.0812 32.954 37.1414 32.9558L37.2354 32.9589C37.2432 32.9592 37.251 32.9593 37.2588 32.9593C37.4485 32.9593 37.6314 32.8814 37.7681 32.7488C37.9105 32.6107 37.9909 32.4161 37.9909 32.2173C37.991 32.1181 37.9709 32.0199 37.9319 31.9287C37.8929 31.8375 37.8359 31.7551 37.7642 31.6865C37.6926 31.6182 37.6078 31.5651 37.5151 31.5304C37.4224 31.4958 37.3236 31.4804 37.2247 31.4851C37.2064 31.4859 37.1882 31.4871 37.1698 31.4884C37.1593 31.4891 37.1488 31.4899 37.1383 31.4903C37.0791 31.4923 37.0223 31.502 36.9676 31.5172C36.9118 31.5014 36.8543 31.4924 36.7964 31.4902C34.0357 31.3989 31.7899 29.0715 31.7899 26.3019V21.2023C31.7899 18.3388 34.1126 16.0092 36.9676 16.0092Z" fill="#363636"/>
<path d="M36.8767 31.3867H36.8566C29.7432 31.4841 23.7334 37.3104 23.7334 44.1095V47.991C23.7334 48.1854 23.8106 48.3719 23.9481 48.5094C24.0856 48.6469 24.2721 48.7241 24.4665 48.7241H49.2668C49.4612 48.7241 49.6477 48.6469 49.7852 48.5094C49.9227 48.3719 49.9999 48.1854 49.9999 47.991V44.1095C49.9999 37.3104 43.9901 31.4841 36.8767 31.3867Z" fill="#363636"/>
<path d="M36.8769 31.3867H36.8568C36.4046 31.3929 35.9567 31.4225 35.5146 31.4738C42.0259 32.2291 47.2957 37.7427 47.2957 44.1096V47.9911C47.2957 48.0874 47.2767 48.1827 47.2399 48.2717C47.2031 48.3606 47.1491 48.4414 47.081 48.5095C47.0129 48.5776 46.9321 48.6316 46.8431 48.6684C46.7542 48.7053 46.6589 48.7242 46.5626 48.7242H49.267C49.4614 48.7242 49.6479 48.647 49.7854 48.5095C49.9229 48.372 50.0001 48.1855 50.0001 47.9911V44.1096C50.0001 37.3103 43.9903 31.4841 36.8769 31.3867Z" fill="#363636"/>
<path d="M40.7458 42.6784L39.0558 35.342C39.0176 35.1765 38.9245 35.0289 38.7917 34.9231C38.6588 34.8174 38.494 34.7598 38.3242 34.7598H35.4093C35.2395 34.7598 35.0747 34.8174 34.9418 34.9231C34.8089 35.0289 34.7159 35.1765 34.6777 35.342L32.9877 42.6784C32.9578 42.8079 32.9629 42.943 33.0024 43.0699C33.0419 43.1968 33.1143 43.311 33.2124 43.4007L36.36 46.2815C36.4983 46.4084 36.6791 46.4786 36.8668 46.4784C37.0544 46.4786 37.2353 46.4083 37.3736 46.2815L40.5212 43.4007C40.6192 43.3109 40.6916 43.1968 40.7311 43.0699C40.7705 42.943 40.7756 42.8079 40.7458 42.6784Z" fill="white"/>
<path d="M40.5211 43.4005C40.6191 43.3108 40.6916 43.1966 40.7311 43.0697C40.7706 42.9428 40.7756 42.8077 40.7458 42.6782L39.1221 35.6299H36.3352L37.9856 42.7946L35.2681 45.2819L36.36 46.2813C36.4983 46.4082 36.6792 46.4784 36.8668 46.4782C37.0544 46.4784 37.2353 46.4082 37.3736 46.2813L40.5211 43.4005Z" fill="white"/>
<path d="M40.9505 32.0877C39.6619 31.6527 38.2913 31.4061 36.8769 31.3867H36.8568C35.4451 31.4061 34.0773 31.6518 32.791 32.0851L34.619 35.6297H39.1148L40.5341 32.8724C40.5821 32.7786 40.773 32.4396 40.9505 32.0877Z" fill="white"/>
<path d="M40.9506 32.0882C40.0907 31.7982 39.2035 31.5966 38.3027 31.4863L36.3354 35.6302H39.1149L40.5342 32.8729C40.5822 32.7791 40.773 32.4401 40.9506 32.0882Z" fill="white"/>
<path d="M24.6956 1.27441H13.2949C10.6853 1.27441 8.56201 3.40381 8.56201 6.02129V9.69727C8.56201 10.1021 8.88926 10.4304 9.29297 10.4304H11.9088C12.3125 10.4304 12.6397 10.1021 12.6397 9.69727V6.54678C12.6397 5.87832 13.182 5.33428 13.8486 5.33428H24.1417C24.8082 5.33428 25.3506 5.87813 25.3506 6.54678V9.69727C25.3506 10.1021 25.6778 10.4304 26.0815 10.4304H28.6975C29.1012 10.4304 29.4284 10.1021 29.4284 9.69727V6.02129C29.4283 3.40391 27.3053 1.27441 24.6956 1.27441Z" fill="#353535"/>
<path d="M31.2321 23.9452C30.5425 24.1141 29.8351 24.1996 29.1251 24.1999H28.9386V25.9104H29.5125C30.2054 25.9104 30.878 25.825 31.5225 25.6674V23.797C31.4383 23.8679 31.3389 23.9186 31.2321 23.9452ZM0.932813 19.269C0.337598 18.1086 0 16.7936 0 15.3984V17.4305C0 21.7466 3.21553 25.3068 7.37451 25.8394V24.071C4.52461 23.5865 2.16738 21.7463 0.932813 19.269ZM25.3567 24.2001H11.0422C10.9294 24.2001 10.8182 24.1736 10.7174 24.1229V25.9105H25.5957V24.1591C25.5189 24.1861 25.4381 24.2 25.3567 24.2001Z" fill="white"/>
<path d="M37.2599 8.96387H0.730957C0.327246 8.96387 0 9.29209 0 9.69697V15.3082C0 19.7704 3.32461 23.5611 7.7334 24.1257C7.83641 24.1388 7.94105 24.1298 8.04031 24.0993C8.13956 24.0688 8.23116 24.0174 8.30898 23.9486C8.38694 23.8797 8.44935 23.795 8.49208 23.7002C8.53482 23.6053 8.55689 23.5025 8.55684 23.3984V21.6722H10.3112V23.467C10.3112 23.8719 10.6385 24.2001 11.0422 24.2001H25.3567C25.7605 24.2001 26.0877 23.8719 26.0877 23.467V21.6722H27.8421V23.467C27.8421 23.8719 28.1693 24.2001 28.573 24.2001H29.1252C29.8322 24.2001 30.5411 24.1144 31.2322 23.9454C31.3915 23.9062 31.533 23.8147 31.6341 23.6856C31.7352 23.5564 31.7901 23.3971 31.7899 23.2331V21.2021C31.7899 18.3386 34.1126 16.0091 36.9676 16.0091C37.0499 16.0091 37.1338 16.0112 37.2241 16.0156C37.3231 16.0205 37.4219 16.0051 37.5147 15.9705C37.6076 15.9359 37.6923 15.8828 37.764 15.8144C37.8357 15.7458 37.8928 15.6634 37.9318 15.5721C37.9708 15.4809 37.9908 15.3826 37.9908 15.2834V9.69697C37.9908 9.29199 37.6636 8.96387 37.2599 8.96387Z" fill="#363636"/>
<path d="M11.0421 20.2061H7.82593C7.42222 20.2061 7.09497 20.5343 7.09497 20.9392V24.8223C7.09497 26.1158 8.14429 27.1683 9.43394 27.1683C10.7237 27.1683 11.7731 26.1158 11.7731 24.8223V20.9392C11.7731 20.5344 11.4458 20.2061 11.0421 20.2061Z" fill="#CBAB96"/>
<path d="M28.5731 20.2061H25.3569C24.9532 20.2061 24.626 20.5343 24.626 20.9392V24.8223C24.626 26.1158 25.6753 27.1683 26.965 27.1683C28.2548 27.1683 29.3041 26.1158 29.3041 24.8223V20.9392C29.304 20.5344 28.9768 20.2061 28.5731 20.2061Z" fill="#CBAB96"/>
<path d="M36.8669 14.4453C33.1951 14.4453 30.2078 17.4327 30.2078 21.1045V26.204C30.2078 29.8759 33.1951 32.8632 36.8669 32.8632C40.5388 32.8632 43.5261 29.8759 43.5261 26.204V21.1045C43.5261 17.4327 40.5388 14.4453 36.8669 14.4453Z" fill="#CBAB96"/>
<path d="M36.8669 14.4453C36.4121 14.4453 35.9679 14.4914 35.5386 14.5787C38.5762 15.1961 40.8694 17.8875 40.8694 21.1046V26.2041C40.8694 29.4213 38.5762 32.1126 35.5386 32.73C35.9758 32.8188 36.4208 32.8635 36.8669 32.8634C40.5388 32.8634 43.5261 29.8761 43.5261 26.2042V21.1047C43.5261 17.4327 40.5388 14.4453 36.8669 14.4453Z" fill="#CBAB96"/>
<path d="M43.5261 23.6489V21.1045C43.5261 17.4326 40.5388 14.4453 36.8669 14.4453C33.1951 14.4453 30.2078 17.4327 30.2078 21.1045V23.6497H30.944C36.1209 23.6497 38.0069 20.1541 38.0069 20.1541C38.0069 20.1541 39.3252 23.6328 42.7899 23.649H43.5261V23.6489Z" fill="#363636"/>
</svg>
