
<svg width="50" height="50" viewBox="0 0 50 50" fill="none" xmlns="http://www.w3.org/2000/svg">
<path d="M42.8384 34.6878C42.5538 33.9098 41.9723 33.2764 41.2215 32.9264C40.4707 32.5764 39.6117 32.5384 38.8329 32.8206L33.9634 34.5933C33.7428 34.1646 33.4263 33.7925 33.0385 33.5061C32.6507 33.2196 32.202 33.0265 31.7274 32.9417L21.1095 31.0667C20.9746 31.0425 20.8356 31.0549 20.7071 31.1027L15.6048 32.9597L15.3376 32.2253C15.3027 32.1288 15.2491 32.0401 15.1799 31.9643C15.1107 31.8885 15.0273 31.8271 14.9343 31.7836C14.8414 31.7401 14.7408 31.7153 14.6383 31.7106C14.5357 31.706 14.4333 31.7216 14.3368 31.7566L8.46338 33.8948C8.36687 33.9298 8.27819 33.9833 8.2024 34.0525C8.12661 34.1217 8.06519 34.2052 8.02166 34.2981C7.97813 34.3911 7.95334 34.4917 7.9487 34.5942C7.94406 34.6967 7.95967 34.7991 7.99462 34.8956L2.85556 36.7706C2.75906 36.8055 2.67038 36.8591 2.59458 36.9283C2.51879 36.9975 2.45738 37.081 2.41385 37.1739C2.37032 37.2668 2.34553 37.3674 2.34089 37.47C2.33625 37.5725 2.35185 37.6749 2.38681 37.7714L6.13213 48.0472C6.16704 48.1437 6.22062 48.2324 6.28982 48.3082C6.35901 48.384 6.44246 48.4454 6.5354 48.4889C6.62834 48.5324 6.72894 48.5572 6.83146 48.5619C6.93399 48.5665 7.03642 48.5509 7.13291 48.5159L12.272 46.6409C12.3069 46.7375 12.3605 46.8263 12.4297 46.9022C12.499 46.978 12.5825 47.0395 12.6755 47.083C12.7686 47.1265 12.8693 47.1513 12.9719 47.1559C13.0745 47.1605 13.177 47.1448 13.2735 47.1097L19.1462 44.9714C19.2427 44.9365 19.3314 44.8829 19.4072 44.8137C19.483 44.7445 19.5444 44.6611 19.5879 44.5681C19.6314 44.4752 19.6562 44.3746 19.6609 44.2721C19.6655 44.1695 19.6499 44.0671 19.6149 43.9706L19.3477 43.237L19.8251 43.0628L24.304 44.5761C24.4724 44.6323 24.6549 44.6301 24.822 44.5698L27.0243 43.7675L40.972 38.6894C41.7496 38.4056 42.3829 37.8249 42.7329 37.0746C43.0828 36.3244 43.1207 35.466 42.8384 34.6878Z" fill="#CBAB96"/>
<path d="M7.33291 46.7769L11.7376 45.1737L8.53134 36.3652M13.4735 45.3737L17.8821 43.7698L14.1407 33.4917M18.8118 41.7644L19.5462 41.4972C19.7129 41.4364 19.8953 41.4342 20.0634 41.4909L24.5431 43.0042L40.4368 37.223C40.6298 37.1529 40.8071 37.0455 40.9586 36.9069C41.1101 36.7683 41.2328 36.6012 41.3196 36.4152C41.451 36.1348 41.4968 35.8217 41.4499 35.5157C41.403 35.2097 41.2663 34.9245 41.057 34.6963C40.8477 34.4681 40.5754 34.3072 40.2746 34.2341C39.9737 34.1609 39.6579 34.1788 39.3673 34.2855L34.2985 36.1308C34.2968 36.2712 34.2858 36.4113 34.2657 36.5503C34.1213 37.3674 33.6592 38.094 32.9804 38.5711C32.3017 39.0483 31.4615 39.2372 30.6438 39.0964L21.8477 37.5448L22.1188 36.0066L30.9173 37.555C31.326 37.625 31.7458 37.5306 32.0852 37.2923C32.4245 37.0541 32.656 36.6913 32.729 36.2831C32.7599 36.1082 32.7578 35.9291 32.7227 35.755C32.7173 35.73 32.7102 35.7034 32.7102 35.6769C32.6989 35.6101 32.6809 35.5447 32.6563 35.4816C32.5635 35.2226 32.4034 34.9931 32.1925 34.8165C31.9816 34.64 31.7275 34.5227 31.4563 34.4769L21.0454 32.6347M42.8384 34.6878C42.5538 33.9098 41.9723 33.2764 41.2215 32.9264C40.4707 32.5764 39.6117 32.5384 38.8329 32.8206L33.9634 34.5933C33.7428 34.1646 33.4263 33.7925 33.0385 33.5061C32.6507 33.2196 32.202 33.0265 31.7274 32.9417L21.1095 31.0667C20.9746 31.0425 20.8356 31.0549 20.7071 31.1027L15.6048 32.9597L15.3376 32.2253C15.3027 32.1288 15.2491 32.0401 15.1799 31.9643C15.1107 31.8885 15.0273 31.8271 14.9343 31.7836C14.8414 31.7401 14.7408 31.7153 14.6383 31.7106C14.5357 31.706 14.4333 31.7216 14.3368 31.7566L8.46338 33.8948C8.36687 33.9298 8.27819 33.9833 8.2024 34.0525C8.12661 34.1217 8.06519 34.2052 8.02166 34.2981C7.97813 34.3911 7.95334 34.4917 7.9487 34.5942C7.94406 34.6967 7.95967 34.7991 7.99462 34.8956L2.85556 36.7706C2.75906 36.8055 2.67038 36.8591 2.59458 36.9283C2.51879 36.9975 2.45738 37.081 2.41385 37.1739C2.37032 37.2668 2.34553 37.3674 2.34089 37.47C2.33625 37.5725 2.35185 37.6749 2.38681 37.7714L6.13213 48.0472C6.16704 48.1437 6.22062 48.2324 6.28982 48.3082C6.35901 48.384 6.44246 48.4454 6.5354 48.4889C6.62834 48.5324 6.72894 48.5572 6.83146 48.5619C6.93399 48.5665 7.03642 48.5509 7.13291 48.5159L12.272 46.6409C12.3069 46.7375 12.3605 46.8263 12.4297 46.9022C12.499 46.978 12.5825 47.0395 12.6755 47.083C12.7686 47.1265 12.8693 47.1513 12.9719 47.1559C13.0745 47.1605 13.177 47.1448 13.2735 47.1097L19.1462 44.9714C19.2427 44.9365 19.3314 44.8829 19.4072 44.8137C19.483 44.7445 19.5444 44.6611 19.5879 44.5681C19.6314 44.4752 19.6562 44.3746 19.6609 44.2721C19.6655 44.1695 19.6499 44.0671 19.6149 43.9706L19.3477 43.237L19.8251 43.0628L24.304 44.5761C24.4724 44.6323 24.6549 44.6301 24.822 44.5698L27.0243 43.7675L40.972 38.6894C41.7496 38.4056 42.3829 37.8249 42.7329 37.0746C43.0828 36.3244 43.1207 35.466 42.8384 34.6878Z" stroke="white" stroke-width="0.4"/>
<path d="M14.7336 18.7422L17.7852 19.1781C17.9302 19.605 18.1016 20.0225 18.2984 20.4281L16.4516 22.8906C16.339 23.041 16.2843 23.2269 16.2977 23.4143C16.311 23.6017 16.3915 23.778 16.5242 23.9109L19.8391 27.2266C19.9721 27.3594 20.1486 27.4398 20.3362 27.453C20.5238 27.4662 20.7098 27.4113 20.8602 27.2984L23.3227 25.4516C23.7283 25.6483 24.1458 25.8197 24.5727 25.9648L25.0086 29.0172C25.0353 29.2031 25.1281 29.3733 25.27 29.4964C25.4119 29.6195 25.5934 29.6873 25.7812 29.6875H30.4688C30.6567 29.6875 30.8384 29.6198 30.9805 29.4966C31.1226 29.3735 31.2155 29.2033 31.2422 29.0172L31.6781 25.9648C32.105 25.8197 32.5224 25.6483 32.9281 25.4516L35.3906 27.2984C35.541 27.4113 35.727 27.4662 35.9146 27.453C36.1021 27.4398 36.2787 27.3594 36.4117 27.2266L39.7266 23.9109C39.8593 23.778 39.9397 23.6017 39.9531 23.4143C39.9664 23.2269 39.9118 23.041 39.7992 22.8906L37.9523 20.4273C38.1492 20.0217 38.3206 19.6042 38.4656 19.1773L41.5172 18.7414C41.7031 18.7147 41.8733 18.6219 41.9964 18.48C42.1195 18.3381 42.1873 18.1566 42.1875 17.9688V13.2812C42.1875 13.0931 42.1196 12.9113 41.9963 12.7693C41.8731 12.6272 41.7026 12.5343 41.5164 12.5078L38.4648 12.0719C38.3199 11.645 38.1484 11.2275 37.9516 10.8219L39.7984 8.35938C39.911 8.20899 39.9657 8.02306 39.9523 7.83568C39.939 7.64829 39.8585 7.47198 39.7258 7.33906L36.4109 4.02344C36.2779 3.89079 36.1016 3.81051 35.9142 3.79731C35.7268 3.78411 35.5409 3.83887 35.3906 3.95156L32.9273 5.79844C32.5217 5.60174 32.1042 5.43032 31.6773 5.28516L31.2422 2.23281C31.2155 2.04672 31.1226 1.87649 30.9805 1.75337C30.8384 1.63024 30.6567 1.56247 30.4688 1.5625H25.7812C25.5933 1.56247 25.4115 1.63024 25.2695 1.75337C25.1274 1.87649 25.0345 2.04672 25.0078 2.23281L24.5719 5.28516C24.145 5.43032 23.7276 5.60174 23.3219 5.79844L20.8594 3.95156C20.709 3.83866 20.523 3.78377 20.3354 3.79698C20.1479 3.81018 19.9713 3.89059 19.8383 4.02344L16.5242 7.33906C16.3915 7.47198 16.311 7.64829 16.2977 7.83568C16.2843 8.02306 16.339 8.20899 16.4516 8.35938L18.2984 10.8234C18.1016 11.229 17.9301 11.6465 17.7852 12.0734L14.7336 12.5094C14.5476 12.5359 14.3774 12.6285 14.2542 12.7702C14.1309 12.912 14.0629 13.0934 14.0625 13.2812V17.9688C14.0625 18.1569 14.1304 18.3387 14.2537 18.4807C14.3769 18.6228 14.5474 18.7157 14.7336 18.7422Z" fill="#363636"/>
<path d="M18.893 13.3669C18.7795 13.4652 18.6401 13.5288 18.4914 13.55L15.625 13.9586V17.2914L18.4891 17.6984C18.6377 17.7196 18.7772 17.7832 18.8907 17.8816C19.0041 17.9799 19.0869 18.1089 19.1289 18.2531C19.3168 18.9044 19.5754 19.5331 19.9 20.1281C19.9722 20.2598 20.0049 20.4095 19.9942 20.5592C19.9836 20.709 19.93 20.8526 19.8398 20.9727L18.1055 23.2859L20.4617 25.6422L22.775 23.9078C22.8951 23.8177 23.0386 23.7641 23.1884 23.7534C23.3382 23.7427 23.4879 23.7755 23.6195 23.8477C24.2147 24.172 24.8434 24.4306 25.4945 24.6187C25.6386 24.6607 25.7675 24.7433 25.8659 24.8567C25.9643 24.97 26.0279 25.1093 26.0492 25.2578L26.4586 28.125H29.7914L30.1984 25.2562C30.2198 25.1077 30.2834 24.9684 30.3818 24.8551C30.4801 24.7418 30.6091 24.6592 30.7531 24.6172C31.4043 24.429 32.033 24.1705 32.6281 23.8461C32.7598 23.7739 32.9095 23.7412 33.0592 23.7518C33.209 23.7625 33.3526 23.8161 33.4727 23.9062L35.7859 25.6438L38.1422 23.2875L36.4078 20.9742C36.3177 20.8541 36.2641 20.7106 36.2534 20.5608C36.2427 20.411 36.2755 20.2614 36.3477 20.1297C36.6723 19.5347 36.9308 18.9059 37.1188 18.2547C37.1608 18.1105 37.2435 17.9815 37.357 17.8831C37.4705 17.7848 37.6099 17.7212 37.7586 17.7L40.625 17.2914V13.9586L37.757 13.5516C37.6083 13.5304 37.4689 13.4668 37.3554 13.3684C37.242 13.2701 37.1592 13.1411 37.1172 12.9969C36.9287 12.3458 36.6701 11.7172 36.3461 11.1219C36.2739 10.9902 36.2412 10.8405 36.2518 10.6908C36.2625 10.541 36.3161 10.3974 36.4062 10.2773L38.1422 7.96563L35.7859 5.60938L33.4727 7.34375C33.3526 7.43316 33.2095 7.48621 33.0602 7.4966C32.9109 7.50699 32.7617 7.47427 32.6305 7.40234C32.0353 7.07795 31.4066 6.81939 30.7555 6.63125C30.6114 6.58925 30.4825 6.50665 30.3841 6.39332C30.2857 6.27999 30.2221 6.14073 30.2008 5.99219L29.7914 3.125H26.4586L26.0516 5.99375C26.0302 6.14229 25.9666 6.28156 25.8682 6.39488C25.7699 6.50821 25.6409 6.59082 25.4969 6.63281C24.8457 6.82095 24.217 7.07951 23.6219 7.40391C23.4902 7.4761 23.3405 7.50882 23.1908 7.49815C23.041 7.48748 22.8974 7.43388 22.7773 7.34375L20.4641 5.60625L18.1078 7.9625L19.8422 10.2758C19.9323 10.3959 19.9859 10.5394 19.9966 10.6892C20.0073 10.839 19.9745 10.9886 19.9023 11.1203M14.7336 18.7422L17.7852 19.1781C17.9302 19.605 18.1016 20.0225 18.2984 20.4281L16.4516 22.8906C16.339 23.041 16.2843 23.2269 16.2977 23.4143C16.311 23.6017 16.3915 23.778 16.5242 23.9109L19.8391 27.2266C19.9721 27.3594 20.1486 27.4398 20.3362 27.453C20.5238 27.4662 20.7098 27.4113 20.8602 27.2984L23.3227 25.4516C23.7283 25.6483 24.1458 25.8197 24.5727 25.9648L25.0086 29.0172C25.0353 29.2031 25.1281 29.3733 25.27 29.4964C25.4119 29.6195 25.5934 29.6873 25.7812 29.6875H30.4688C30.6567 29.6875 30.8385 29.6198 30.9805 29.4966C31.1226 29.3735 31.2155 29.2033 31.2422 29.0172L31.6781 25.9648C32.105 25.8197 32.5224 25.6483 32.9281 25.4516L35.3906 27.2984C35.541 27.4113 35.727 27.4662 35.9146 27.453C36.1021 27.4398 36.2787 27.3594 36.4117 27.2266L39.7266 23.9109C39.8593 23.778 39.9397 23.6017 39.9531 23.4143C39.9664 23.2269 39.9118 23.041 39.7992 22.8906L37.9523 20.4273C38.1492 20.0217 38.3206 19.6042 38.4656 19.1773L41.5172 18.7414C41.7031 18.7147 41.8733 18.6219 41.9964 18.48C42.1195 18.3381 42.1873 18.1566 42.1875 17.9688V13.2812C42.1875 13.0931 42.1196 12.9113 41.9963 12.7693C41.8731 12.6272 41.7026 12.5343 41.5164 12.5078L38.4648 12.0719C38.3199 11.645 38.1484 11.2275 37.9516 10.8219L39.7984 8.35938C39.911 8.20899 39.9657 8.02306 39.9523 7.83568C39.939 7.64829 39.8585 7.47198 39.7258 7.33906L36.4109 4.02344C36.2779 3.89079 36.1016 3.81051 35.9142 3.79731C35.7268 3.78411 35.5409 3.83887 35.3906 3.95156L32.9273 5.79844C32.5217 5.60174 32.1042 5.43032 31.6773 5.28516L31.2422 2.23281C31.2155 2.04672 31.1226 1.87649 30.9805 1.75337C30.8385 1.63024 30.6567 1.56247 30.4688 1.5625H25.7812C25.5933 1.56247 25.4115 1.63024 25.2695 1.75337C25.1274 1.87649 25.0345 2.04672 25.0078 2.23281L24.5719 5.28516C24.145 5.43032 23.7276 5.60174 23.3219 5.79844L20.8594 3.95156C20.709 3.83866 20.523 3.78377 20.3354 3.79698C20.1479 3.81018 19.9713 3.89059 19.8383 4.02344L16.5242 7.33906C16.3915 7.47198 16.311 7.64829 16.2977 7.83568C16.2843 8.02306 16.339 8.20899 16.4516 8.35938L18.2984 10.8234C18.1016 11.229 17.9301 11.6465 17.7852 12.0734L14.7336 12.5094C14.5476 12.5359 14.3774 12.6285 14.2542 12.7702C14.1309 12.912 14.0629 13.0934 14.0625 13.2812V17.9688C14.0625 18.1569 14.1304 18.3387 14.2537 18.4807C14.3769 18.6228 14.5474 18.7157 14.7336 18.7422Z" stroke="white" stroke-width="0.4"/>
<path d="M27.3438 4.6875H28.9062V6.25H27.3438V4.6875Z" fill="white"/>
<path d="M19.8391 8.44238L20.944 7.33753L22.0488 8.44238L20.944 9.54724L19.8391 8.44238Z" fill="white"/>
<path d="M19.8389 22.8066L20.9437 21.7018L22.0486 22.8066L20.9437 23.9115L19.8389 22.8066Z" fill="white"/>
<path d="M27.3438 25H28.9062V26.5625H27.3438V25Z" fill="white"/>
<path d="M34.2007 22.8066L35.3055 21.7018L36.4104 22.8066L35.3055 23.9115L34.2007 22.8066Z" fill="white"/>
<path d="M34.2014 8.44336L35.3063 7.33851L36.4111 8.44336L35.3063 9.54821L34.2014 8.44336Z" fill="white"/>
<path d="M28.125 21.875C29.3611 21.875 30.5695 21.5084 31.5973 20.8217C32.6251 20.1349 33.4262 19.1588 33.8992 18.0168C34.3723 16.8747 34.4961 15.6181 34.2549 14.4057C34.0138 13.1933 33.4185 12.0797 32.5444 11.2056C31.6703 10.3315 30.5567 9.73625 29.3443 9.49509C28.1319 9.25394 26.8753 9.37771 25.7332 9.85076C24.5912 10.3238 23.6151 11.1249 22.9283 12.1527C22.2416 13.1805 21.875 14.3889 21.875 15.625C21.8769 17.282 22.5359 18.8707 23.7076 20.0424C24.8793 21.2141 26.468 21.8731 28.125 21.875ZM28.125 10.9375C29.0521 10.9375 29.9584 11.2124 30.7292 11.7275C31.5001 12.2426 32.1009 12.9746 32.4557 13.8312C32.8105 14.6877 32.9033 15.6302 32.7224 16.5395C32.5416 17.4488 32.0951 18.284 31.4396 18.9396C30.784 19.5951 29.9488 20.0416 29.0395 20.2224C28.1302 20.4033 27.1877 20.3105 26.3312 19.9557C25.4746 19.6009 24.7426 19.0001 24.2275 18.2292C23.7124 17.4584 23.4375 16.5521 23.4375 15.625C23.4387 14.3822 23.933 13.1906 24.8118 12.3118C25.6906 11.433 26.8822 10.9387 28.125 10.9375Z" fill="white"/>
<path d="M17.1875 14.8438H18.75V16.4062H17.1875V14.8438Z" fill="white"/>
<path d="M37.5 14.8438H39.0625V16.4062H37.5V14.8438Z" fill="white"/>
</svg>
