<svg width="50" height="50" viewBox="0 0 50 50" fill="none" xmlns="http://www.w3.org/2000/svg">
<g clip-path="url(#clip0_7897_158328)">
<path d="M32.2461 11.6826C32.2461 15.6845 29.0019 18.9287 25 18.9287C20.9981 18.9287 17.7539 15.6845 17.7539 11.6826C17.7539 7.68071 20.9981 4.43652 25 4.43652C29.0019 4.43652 32.2461 7.68071 32.2461 11.6826Z" fill="#363636" stroke="#363636" stroke-width="2.5"/>
<path d="M46.3086 14.8076C46.3086 17.0836 44.4635 18.9287 42.1875 18.9287C39.9115 18.9287 38.0664 17.0836 38.0664 14.8076C38.0664 12.5316 39.9115 10.6865 42.1875 10.6865C44.4635 10.6865 46.3086 12.5316 46.3086 14.8076Z" fill="#CBAB96" stroke="#CBAB96" stroke-width="2.5"/>
<path d="M11.9336 14.8076C11.9336 17.0836 10.0885 18.9287 7.8125 18.9287C5.53648 18.9287 3.69141 17.0836 3.69141 14.8076C3.69141 12.5316 5.53648 10.6865 7.8125 10.6865C10.0885 10.6865 11.9336 12.5316 11.9336 14.8076Z" fill="#CBAB96" stroke="#CBAB96" stroke-width="2.5"/>
<path d="M6.63086 25.26C6.89903 25.26 7.1544 25.2582 7.39864 25.2564C8.98291 25.2449 10.0988 25.2368 11.2009 25.7611C7.40865 30.3667 7.4995 35.3439 7.60227 40.9732C7.61381 41.6052 7.62549 42.2455 7.63185 42.8944C7.35357 42.8939 7.01198 42.8919 6.59178 42.8894C5.72822 42.8843 4.53263 42.8772 2.87207 42.8772C1.974 42.8772 1.25 42.1492 1.25 41.2659V30.6009C1.25 27.6645 3.65786 25.26 6.63086 25.26Z" fill="#CBAB96" stroke="#CBAB96" stroke-width="2.5"/>
<path d="M27.2213 24.7838L27.2732 24.7881H27.3252C29.3551 24.7881 31.7683 25.8193 33.6913 27.7106C35.5943 29.5822 36.9336 32.2168 36.9336 35.3174C36.9336 37.2298 36.9388 38.7037 36.9428 39.8513C36.9481 41.3483 36.9513 42.2897 36.9387 42.9241C36.9275 43.4873 36.904 43.717 36.8799 43.8413C36.8637 43.9255 36.8507 43.9623 36.7505 44.1912C36.472 44.8068 36.3307 44.9549 36.1269 45.0685C35.8264 45.2361 35.2208 45.4019 33.763 45.4875C32.0126 45.5901 29.3898 45.5697 25.2829 45.5377C22.6158 45.5169 19.3228 45.4912 15.2364 45.4912C14.035 45.4912 13.0664 44.5077 13.0664 43.3213C13.0664 42.2383 13.0445 41.2138 13.0236 40.2373C12.9734 37.895 12.9291 35.8282 13.2079 33.8895C13.5846 31.2702 14.5428 29.0676 16.9241 27.1602L16.9313 27.1544L16.9383 27.1486C19.7621 24.8178 23.0661 24.4372 27.2213 24.7838Z" fill="#363636" stroke="#363636" stroke-width="2.5"/>
<path d="M42.3952 40.8864C42.4914 35.0564 42.5698 30.3083 38.8012 25.7595C39.9004 25.2371 41.0137 25.245 42.6044 25.2563C42.8476 25.258 43.102 25.2598 43.3691 25.2598C46.3421 25.2598 48.75 27.6643 48.75 30.6006V41.1641C48.75 42.103 47.9802 42.877 47.0254 42.877C45.411 42.877 44.2464 42.8843 43.4028 42.8896C42.9838 42.8922 42.6439 42.8944 42.3675 42.8949C42.3733 42.2109 42.3844 41.5418 42.3952 40.8864Z" fill="#CBAB96" stroke="#CBAB96" stroke-width="2.5"/>
</g>
<defs>
<clipPath id="clip0_7897_158328">
<rect width="50" height="50" fill="white"/>
</clipPath>
</defs>
</svg>
