
<svg width="40" height="40" viewBox="0 0 40 40" fill="none" xmlns="http://www.w3.org/2000/svg">
<path d="M9.66664 10.1654C8.33328 8.83203 2.66664 8.49875 0.833281 8.33203C0.666641 8.33203 0.499922 8.33203 0.333281 8.49867C0.166641 8.66539 0 8.99875 0 9.16539V24.1654C0 24.6654 0.333359 24.9988 0.833359 24.9988H5.83336C6.16672 24.9988 6.5 24.8321 6.66672 24.4988C6.66672 23.9988 9.66672 15.1654 10.0001 10.8321C10 10.6654 10 10.3321 9.66664 10.1654ZM27.5 14.1654C25.8334 13.6654 24.3334 12.9988 23 12.4987C20 11.1654 18.6666 11.8321 16 14.4988C14.8334 15.6654 14 17.3321 14.1666 17.9987C14.1666 18.1654 14.1666 18.1654 14.5 18.3321C15.3334 18.6655 16.5 18.8321 17.6666 16.9988C17.8333 16.8321 18 16.6654 18.3333 16.6654C18.8333 16.6654 18.9999 16.4987 19.4999 16.332C19.8333 16.1654 20.1666 15.9987 20.6666 15.832H20.9999C21.1666 15.832 21.4999 15.9987 21.6666 15.9987C22.5 16.8321 24 17.9987 25.5 19.3321C27.8334 21.1655 30.1666 23.1655 31.3334 24.6655H31.5C30.3334 21.3321 28.3334 15.6654 27.5 14.1654ZM39.1666 9.99875C32.6666 9.99875 29 11.6654 28.8333 11.6654L28.3333 12.1654C28.3333 12.332 28.3333 12.6654 28.4999 12.832C29.4999 14.4987 32.8333 23.6654 33.3333 25.9987C33.4999 26.332 33.8333 26.6653 34.1666 26.6653H39.1666C39.6666 26.6653 40 26.332 40 25.832V10.832C40 10.3321 39.6666 9.99875 39.1666 9.99875Z" fill="black"/>
<path d="M30.1669 26.332C29.5003 24.832 26.6669 22.6654 24.1669 20.6654C22.8336 19.4987 21.5003 18.4987 20.5003 17.6653C20.3336 17.832 20.0003 17.832 20.0003 17.9987C19.5003 18.1653 19.3336 18.332 18.6669 18.332C17.3336 19.9987 15.6669 20.6653 13.8336 19.9987C13.0003 19.832 12.5003 19.1653 12.3336 18.4987C12.0003 16.832 13.5003 14.4987 14.667 13.332H11.3336C10.667 16.6654 9.50027 20.9987 8.66699 23.332C9.33363 23.9987 10.0004 24.832 10.5004 25.1654C13.667 27.832 17.3337 30.4987 18.0004 30.9987C18.5004 31.3321 19.5004 31.6654 20.0004 31.6654H20.5004L17.8336 28.9987C17.5003 28.6653 17.5003 28.1653 17.8336 27.832C18.167 27.4987 18.667 27.4987 19.0003 27.832L22.3336 31.1654C22.667 31.4987 23.0003 31.332 23.3336 31.332C23.8336 31.1654 24.0003 30.832 24.167 30.332L20.3336 26.4987C20.0003 26.1653 20.0003 25.6653 20.3336 25.332C20.667 24.9987 21.167 24.9987 21.5003 25.332L25.6669 29.4987C25.8336 29.6653 26.5003 29.6653 27.0003 29.4987C27.1669 29.332 27.5003 29.1653 27.6669 28.832L23.0003 24.1653C22.6669 23.832 22.6669 23.332 23.0003 22.9987C23.3336 22.6654 23.8336 22.6653 24.1669 22.9987L29.0003 27.832C29.3336 27.9987 29.6669 27.832 30.0003 27.6654C30.1669 27.4987 30.5003 26.9987 30.1669 26.332Z" fill="black"/>
</svg>
