
<svg width="50" height="50" viewBox="0 0 50 50" fill="none" xmlns="http://www.w3.org/2000/svg">
<g clip-path="url(#clip0_7299_5480)">
<path fill-rule="evenodd" clip-rule="evenodd" d="M47.4138 47.4056V49.1384C47.4138 49.367 47.3229 49.5863 47.1613 49.748C46.9996 49.9096 46.7803 50.0005 46.5517 50.0005H3.44825C3.21962 50.0005 3.00035 49.9096 2.83868 49.748C2.67701 49.5863 2.58618 49.367 2.58618 49.1384V47.4056C2.58618 43.9574 3.83618 41.8453 6.03446 39.647C8.62066 37.0608 18.1034 34.4746 18.1034 34.4746L25 37.0694L31.8965 34.4746C31.8965 34.4746 41.3793 37.0608 43.9655 39.647C46.1638 41.8453 47.4138 43.9574 47.4138 47.4056Z" fill="#363636"/>
<path fill-rule="evenodd" clip-rule="evenodd" d="M12.0691 50.0004C12.0691 42.859 17.8587 37.0693 25.0001 37.0693C32.1415 37.0693 37.9312 42.859 37.9312 50.0004H12.0691Z" fill="#CBAB96"/>
<path fill-rule="evenodd" clip-rule="evenodd" d="M35.3448 9.48276L38.8215 7.74483C39.3311 7.48976 39.7596 7.09791 40.059 6.61314C40.3585 6.12837 40.5172 5.56982 40.5172 5C40.5209 4.44344 40.3715 3.89659 40.0853 3.4192C39.7992 2.94181 39.3874 2.55226 38.8948 2.2931C36.9508 1.2931 32.912 0 25 0C17.0879 0 13.0491 1.2931 11.1051 2.2931C10.6126 2.55226 10.2007 2.94181 9.91462 3.4192C9.62849 3.89659 9.47908 4.44344 9.48273 5C9.48273 6.16207 10.1396 7.22414 11.1784 7.74483L14.6551 9.48276H35.3448Z" fill="#363636"/>
<path fill-rule="evenodd" clip-rule="evenodd" d="M31.8966 34.4746L25.0001 37.0694L18.1035 34.4746C19.0682 32.1878 19.3959 29.6826 19.0518 27.2246H30.9483C30.6043 29.6826 30.932 32.1878 31.8966 34.4746Z" fill="#CBAB96"/>
<path fill-rule="evenodd" clip-rule="evenodd" d="M37.9311 17.241C37.9288 18.1541 37.5645 19.0289 36.9181 19.6737C36.2716 20.3186 35.3959 20.6807 34.4828 20.6807V22.5686C34.4823 23.0603 34.3767 23.5462 34.173 23.9938C33.9693 24.4413 33.6723 24.8401 33.3018 25.1634L28.5604 29.31C27.9336 29.8607 27.1275 30.1642 26.2932 30.1634H23.7069C22.8726 30.1642 22.0665 29.8607 21.4397 29.31L16.6983 25.1634C16.3278 24.8401 16.0308 24.4413 15.8271 23.9938C15.6234 23.5462 15.5178 23.0603 15.5173 22.5686V20.6807C15.0656 20.6807 14.6183 20.5917 14.201 20.4188C13.7837 20.246 13.4045 19.9926 13.0851 19.6732C12.7657 19.3538 12.5123 18.9746 12.3395 18.5573C12.1666 18.14 12.0776 17.6927 12.0776 17.241C12.0776 16.7893 12.1666 16.342 12.3395 15.9247C12.5123 15.5074 12.7657 15.1282 13.0851 14.8088C13.4045 14.4894 13.7837 14.236 14.201 14.0632C14.6183 13.8903 15.0656 13.8014 15.5173 13.8014V12.9307C15.5173 12.9307 17.7069 13.7927 25.0001 13.7927C32.2932 13.7927 34.4828 12.9307 34.4828 12.9307V13.8014C35.3952 13.8036 36.2696 14.1665 36.9156 14.8108C37.5615 15.4551 37.9265 16.3287 37.9311 17.241Z" fill="#CBAB96"/>
<path fill-rule="evenodd" clip-rule="evenodd" d="M35.3449 9.48269L34.4829 12.931C34.4829 12.931 32.2932 13.793 25.0001 13.793C17.707 13.793 15.5173 12.931 15.5173 12.931L14.6553 9.48269C14.6553 9.48269 15.5173 6.89648 25.0001 6.89648C34.4829 6.89648 35.3449 9.48269 35.3449 9.48269Z" fill="#363636"/>
<path fill-rule="evenodd" clip-rule="evenodd" d="M36.2068 14.2673V16.3707C36.2068 16.5994 36.1159 16.8186 35.9543 16.9803C35.7926 17.142 35.5733 17.2328 35.3447 17.2328C35.1161 17.2328 34.8968 17.142 34.7351 16.9803C34.5735 16.8186 34.4826 16.5994 34.4826 16.3707V13.8018C35.0887 13.8018 35.6835 13.963 36.2068 14.2673ZM15.5171 13.8018V16.3707C15.5171 16.5994 15.4263 16.8186 15.2646 16.9803C15.1029 17.142 14.8837 17.2328 14.655 17.2328C14.4264 17.2328 14.2071 17.142 14.0455 16.9803C13.8838 16.8186 13.793 16.5994 13.793 16.3707V14.2673C14.3167 13.963 14.9114 13.8024 15.5171 13.8018Z" fill="#363636"/>
<path fill-rule="evenodd" clip-rule="evenodd" d="M27 25C27 25 25.4956 25.5 24.5 25.5C23.5044 25.5 22 25 22 25C22 25 21.4804 24.8946 21.2929 24.7071C21.1054 24.5196 21 24.2652 21 24C21 23.7348 21.1054 23.4804 21.2929 23.2929C21.4804 23.1054 21.7348 23 22 23C22 23 23.5044 23.5 24.5 23.5C25.4956 23.5 27 23 27 23C27.2652 23 27.5196 23.1054 27.7071 23.2929C27.8946 23.4804 28 23.7348 28 24C28 24.2652 27.8946 24.5196 27.7071 24.7071C27.5196 24.8946 27 25 27 25Z" fill="#363636"/>
<path fill-rule="evenodd" clip-rule="evenodd" d="M20.6897 18.095C20.4611 18.095 20.2418 18.0042 20.0801 17.8425C19.9185 17.6808 19.8276 17.4616 19.8276 17.2329V16.3709C19.8276 16.1422 19.9185 15.923 20.0801 15.7613C20.2418 15.5996 20.4611 15.5088 20.6897 15.5088C20.9183 15.5088 21.1376 15.5996 21.2993 15.7613C21.461 15.923 21.5518 16.1422 21.5518 16.3709V17.2329C21.5518 17.4616 21.461 17.6808 21.2993 17.8425C21.1376 18.0042 20.9183 18.095 20.6897 18.095ZM29.3104 18.095C29.0818 18.095 28.8625 18.0042 28.7008 17.8425C28.5392 17.6808 28.4483 17.4616 28.4483 17.2329V16.3709C28.4483 16.1422 28.5392 15.923 28.7008 15.7613C28.8625 15.5996 29.0818 15.5088 29.3104 15.5088C29.539 15.5088 29.7583 15.5996 29.92 15.7613C30.0816 15.923 30.1725 16.1422 30.1725 16.3709V17.2329C30.1725 17.4616 30.0816 17.6808 29.92 17.8425C29.7583 18.0042 29.539 18.095 29.3104 18.095Z" fill="#363636"/>
<path fill-rule="evenodd" clip-rule="evenodd" d="M34.4829 50C34.481 47.9803 33.8354 46.0137 32.6397 44.3859C31.444 42.7582 29.7605 41.554 27.8337 40.9483C27.7047 40.9096 27.5685 40.9017 27.4359 40.9252C27.3033 40.9487 27.178 41.003 27.0702 41.0836C26.9623 41.1642 26.8748 41.269 26.8148 41.3895C26.7547 41.51 26.7237 41.6429 26.7242 41.7776V47.0172C27.2491 47.3182 27.685 47.7527 27.9878 48.2765C28.2906 48.8003 28.4495 49.3949 28.4484 50H34.4829ZM21.5518 50C21.5507 49.3949 21.7096 48.8003 22.0124 48.2765C22.3152 47.7527 22.7511 47.3182 23.276 47.0172V41.7776C23.2766 41.6428 23.2457 41.5098 23.1857 41.3892C23.1257 41.2686 23.0382 41.1637 22.9304 41.083C22.8225 41.0022 22.6972 40.9479 22.5645 40.9244C22.4319 40.9009 22.2955 40.9087 22.1665 40.9474C20.2396 41.5532 18.556 42.7575 17.3602 44.3854C16.1645 46.0134 15.519 47.9801 15.5173 50H21.5518Z" fill="#363636"/>
<path fill-rule="evenodd" clip-rule="evenodd" d="M34.5517 35.2754L31.1896 38.6374C29.2903 37.6045 27.162 37.065 25 37.0685L31.8965 34.4736C31.8965 34.4736 33 34.7754 34.5517 35.2754ZM25 37.0685C22.8379 37.065 20.7096 37.6045 18.8103 38.6374L15.4482 35.2754C17 34.7754 18.1034 34.4736 18.1034 34.4736L25 37.0685Z" fill="#363636"/>
</g>
<defs>
<clipPath id="clip0_7299_5480">
<rect width="50" height="50" fill="white"/>
</clipPath>
</defs>
</svg>
