<svg
                  xmlns="http://www.w3.org/2000/svg"
                  width="30"
                  height="30"
                  viewBox="0 0 30 30"
                  fill="none"
                >
                  <path
                    fillRule="evenodd"
                    clipRule="evenodd"
                    d="M15 27.5C21.9036 27.5 27.5 21.9036 27.5 15C27.5 8.09644 21.9036 2.5 15 2.5C8.09644 2.5 2.5 8.09644 2.5 15C2.5 21.9036 8.09644 27.5 15 27.5ZM18.7466 7.72229C16.0729 7.4259 13.3747 7.4259 10.701 7.72229C9.1617 7.89444 7.91846 9.10708 7.7379 10.6541C7.4207 13.3659 7.4207 16.1055 7.7379 18.8174C7.91846 20.3644 9.16094 21.577 10.701 21.7492C13.3747 22.0453 16.0729 22.0453 18.7466 21.7492C20.2859 21.577 21.5291 20.3644 21.7097 18.8174C22.0269 16.1055 22.0269 13.3659 21.7097 10.6541C21.5291 9.10708 20.2867 7.89444 18.7466 7.72229ZM10.828 8.86226C13.4173 8.57525 16.0303 8.57525 18.6196 8.86226C19.6371 8.97702 20.4519 9.77958 20.5705 10.7879C20.8773 13.4109 20.8773 16.0606 20.5705 18.6835C20.5092 19.177 20.2832 19.6354 19.9292 19.9847C19.5752 20.334 19.1138 20.5537 18.6196 20.6084C16.0303 20.8955 13.4173 20.8955 10.828 20.6084C10.3338 20.5537 9.87234 20.334 9.51835 19.9847C9.16435 19.6354 8.93843 19.177 8.8771 18.6835C8.57034 16.0606 8.57034 13.4109 8.8771 10.7879C8.93843 10.2944 9.16435 9.83603 9.51835 9.48675C9.87234 9.13747 10.3338 8.91696 10.828 8.86226ZM18.0073 10.3686C17.8638 10.5121 17.7832 10.7067 17.7832 10.9096C17.7832 11.1125 17.8638 11.3071 18.0073 11.4506C18.1508 11.5941 18.3454 11.6747 18.5483 11.6747C18.7512 11.6747 18.9458 11.5941 19.0893 11.4506C19.2327 11.3071 19.3134 11.1125 19.3134 10.9096C19.3134 10.7067 19.2327 10.5121 19.0893 10.3686C18.9458 10.2251 18.7512 10.1445 18.5483 10.1445C18.3454 10.1445 18.1508 10.2251 18.0073 10.3686ZM12.1533 12.166C12.8348 11.4844 13.7591 11.1016 14.723 11.1016C15.6868 11.1016 16.6111 11.4844 17.2927 12.166C17.9742 12.8475 18.3571 13.7718 18.3571 14.7357C18.3571 15.6995 17.9742 16.6238 17.2927 17.3054C16.6111 17.9869 15.6868 18.3698 14.723 18.3698C13.7591 18.3698 12.8348 17.9869 12.1533 17.3054C11.4717 16.6238 11.0889 15.6995 11.0889 14.7357C11.0889 13.7718 11.4717 12.8475 12.1533 12.166ZM12.9648 12.9775C12.4984 13.4438 12.2365 14.0762 12.2365 14.7357C12.2365 15.3951 12.4984 16.0276 12.9648 16.4939C13.4311 16.9602 14.0635 17.2222 14.723 17.2222C15.3824 17.2222 16.0149 16.9602 16.4812 16.4939C16.9475 16.0276 17.2095 15.3951 17.2095 14.7357C17.2095 14.0762 16.9475 13.4438 16.4812 12.9775C16.0149 12.5111 15.3824 12.2492 14.723 12.2492C14.0635 12.2492 13.4311 12.5111 12.9648 12.9775Z"
                    fill="#141414"
                  />
                </svg>