 <svg
            width="104"
            height="76"
            viewBox="0 0 104 76"
            fill="none"
            xmlns="http://www.w3.org/2000/svg"
          >
            <g clip-path="url(#clip0_8244_252291)">
              <path
                fillRule="evenodd"
                clip-rule="evenodd"
                d="M51.4527 11.8926C51.4527 13.8042 50.8984 15.5892 49.943 17.096C49.5971 17.3677 48.917 17.5251 48.5198 17.5334C48.5985 17.2368 48.6732 16.9984 48.74 16.781C48.9052 16.2343 49.027 15.8393 49.0388 15.2159C49.0624 14.0059 48.972 13.3675 48.7125 12.9385C48.3587 12.3626 47.8083 12.3202 47.4033 12.2893C47.1084 12.2667 46.8253 12.2459 46.4951 12.066C45.7009 11.6368 45.6027 11.3943 45.5948 11.3685C45.579 11.3177 45.6655 11.1484 45.7284 11.0244C45.8621 10.751 46.0784 10.322 45.9683 9.8168C45.9879 9.79265 46.0116 9.76937 46.0312 9.74844C46.8765 9.97851 48.1227 10.0469 48.563 9.92602C49.2668 9.73352 49.6049 8.48851 49.5184 7.74937C49.428 6.95937 48.8972 6.45016 48.1384 6.42016C48.0127 6.41602 47.8514 6.43508 47.5527 6.47273C47.3796 6.49516 47.0455 6.53766 46.8056 6.5518C46.7506 6.22586 46.7466 5.77937 46.9118 5.6293C47.2106 5.35437 47.8042 5.15672 48.2367 5.01266C48.3274 4.98267 48.4179 4.95181 48.508 4.92008C50.3245 6.6918 51.4527 9.16266 51.4527 11.8926ZM47.309 3.9225C45.7245 2.80172 43.7863 2.14258 41.7027 2.14258C40.2087 2.14258 38.7934 2.48 37.5274 3.08266C37.8538 3.1668 38.0935 3.1168 39.0489 2.91586C40.3895 2.63344 40.9045 2.94336 41.396 3.34508C41.6084 3.51922 41.7616 3.645 42.1666 3.70258C42.658 3.77242 43.1219 3.86672 43.4325 4.24422C44.0891 5.05 43.7116 7.11664 42.6266 7.40828C41.6987 7.65758 39.9413 7.74836 39.7055 8.95078C39.5167 9.91414 38.7226 10.1992 38.2705 10.35C38.5181 10.7883 38.6322 11.1141 38.7029 11.335C38.8209 11.3275 38.9742 11.3151 39.1315 11.3024L39.3202 11.2875C39.8548 11.2441 42.4968 12.0058 43.5505 13.0574C43.9554 13.459 44.1441 13.8931 44.1087 14.3457C43.9987 15.7931 43.3224 16.3616 42.7799 16.819C42.375 17.1623 42.1037 17.3891 42.029 18.0098C41.8324 19.5823 41.1837 20.574 40.3305 20.5964C40.3187 20.5964 40.307 20.5973 40.2991 20.5973C38.9781 20.5973 38.581 18.3789 38.4513 17.6455C38.1721 16.088 37.8262 16.008 37.4566 15.923C36.5327 15.708 36.0295 15.2438 36.0098 13.4072C36.0059 13.1214 35.9665 12.8522 35.7935 12.6189C35.6127 12.3764 35.365 12.1906 35.1055 12.0396C34.4489 11.6597 33.238 10.9563 32.2945 9.32383C32.0704 10.143 31.9524 11.0039 31.9524 11.8922C31.9524 17.268 36.3242 21.6421 41.7025 21.6421C44.3484 21.6421 46.7505 20.5814 48.5119 18.8621C48.162 18.8621 47.8435 18.8012 47.6037 18.6621C47.2027 18.4296 47.0257 18.0064 47.1358 17.5562C47.2616 17.0555 47.3717 16.6872 47.4621 16.3905C47.6154 15.898 47.698 15.6263 47.7059 15.1871C47.7295 14.0547 47.6233 13.733 47.584 13.6497C47.5211 13.6355 47.3953 13.6255 47.3009 13.6188C46.9392 13.5913 46.4438 13.553 45.858 13.2389C44.9656 12.7556 44.4938 12.3023 44.3248 11.7689C44.1439 11.2039 44.3798 10.7365 44.5331 10.4273C44.6354 10.223 44.6786 10.1248 44.6589 10.0822C44.4466 9.62562 44.7769 9.14969 44.993 8.90641C45.3823 8.46641 45.8462 8.29133 46.2629 8.42633C46.833 8.61219 47.6861 8.66227 48.0635 8.65055C48.1815 8.38961 48.2562 7.89562 48.1579 7.76305C48.15 7.75969 48.1264 7.75477 48.095 7.75211C48.036 7.75469 47.8552 7.77812 47.7215 7.79461C46.7308 7.92211 45.9484 8.02211 45.6653 7.39211C45.457 6.93219 45.1581 5.42547 46.0112 4.64461C46.3772 4.31164 46.8648 4.08914 47.309 3.9225ZM36.0138 3.97922C36.2405 4.05245 36.466 4.12971 36.69 4.21094C37.6532 4.55586 37.8223 4.53672 39.3241 4.22C40.1457 4.0468 40.2834 4.15672 40.5507 4.3768C40.8259 4.60258 41.2034 4.91172 41.9778 5.02258C42.198 5.05422 42.3159 5.08094 42.3788 5.1C42.4221 5.115 42.3198 6.11008 42.2491 6.12922C42.084 6.1718 41.903 6.20922 41.7065 6.25016C40.3698 6.52672 38.6871 7.20187 38.3962 8.69594C38.3608 8.88101 38.2625 8.94766 37.8182 9.09508C37.488 9.20422 37.0359 9.3543 36.8589 9.82008C36.6859 10.2917 36.9454 10.7268 37.0319 10.8693C37.2992 11.3209 37.3896 11.6085 37.4565 11.8184C37.7513 12.7526 38.2782 12.7093 39.2374 12.6317L39.3947 12.6192C39.8625 12.6584 42.0287 13.33 42.6696 14.0642C42.7639 14.1725 42.7797 14.2343 42.7797 14.245C42.7129 15.1341 42.3787 15.4134 41.9227 15.8001C41.443 16.2034 40.8455 16.7067 40.7039 17.8467C40.6213 18.5316 40.4366 18.9634 40.3068 19.1651C40.177 18.9692 39.957 18.495 39.7642 17.4117C39.3632 15.1751 38.5534 14.8084 37.7591 14.6242C37.5626 14.5784 37.5272 14.5643 37.5114 14.5401C37.4721 14.4851 37.3502 14.2409 37.3423 13.3926C37.3384 12.9777 37.2716 12.5559 37.0829 12.1826C36.8038 11.626 36.3045 11.1934 35.7737 10.8867C35.0543 10.4693 33.7373 9.70586 32.9509 7.5918C33.6627 6.1518 34.7203 4.91094 36.0138 3.97922ZM38.3923 37.8576C36.2418 37.8576 34.4923 36.1084 34.4923 33.9576C34.4923 31.8076 36.2419 30.0584 38.3923 30.0584C40.5428 30.0584 42.2924 31.8076 42.2924 33.9576C42.2924 36.1084 40.5429 37.8576 38.3923 37.8576ZM54.4014 33.2916V8.70758H52.3177C52.628 9.74077 52.7856 10.8138 52.7855 11.8926C52.7855 18.0042 47.8122 22.9759 41.7027 22.9759C35.5892 22.9759 30.6159 18.0042 30.6159 11.8926C30.6158 10.8138 30.7734 9.74078 31.0837 8.70758H29V33.2917H33.2028C33.5291 30.7202 35.7308 28.7251 38.3923 28.7251C41.05 28.7251 43.2516 30.7202 43.5819 33.2917H54.4014V33.2916ZM65.6062 14.8659L68.8142 22.4108H59.9448C59.6223 22.4108 59.3589 22.1492 59.3589 21.8275V14.0559H64.2772C64.8866 14.0559 65.3977 14.3668 65.6062 14.8659ZM62.3666 37.8576C60.216 37.8576 58.4666 36.1084 58.4666 33.9576C58.4666 31.8076 60.2161 30.0584 62.3666 30.0584C64.5171 30.0584 66.2666 31.8076 66.2666 33.9576C66.2666 36.1084 64.5171 37.8576 62.3666 37.8576ZM67.5562 33.2916H69.003V23.7441H59.9448C58.8872 23.7441 58.0262 22.8843 58.0262 21.8275V14.0559H55.7341V33.2916H57.177C57.5073 30.7201 59.7089 28.725 62.3666 28.725C65.0282 28.725 67.2298 30.7201 67.5562 33.2916ZM62.3666 31.2751C60.8883 31.2751 59.6853 32.4783 59.6853 33.9583C59.6853 35.4375 60.8884 36.6408 62.3666 36.6408C63.8488 36.6408 65.0518 35.4376 65.0518 33.9583C65.0518 32.4784 63.8488 31.2751 62.3666 31.2751ZM62.3666 35.3075C63.1096 35.3075 63.719 34.7026 63.719 33.9584C63.719 33.2134 63.1096 32.6084 62.3666 32.6084C61.6235 32.6084 61.018 33.2134 61.018 33.9584C61.0181 34.7026 61.6235 35.3075 62.3666 35.3075ZM38.3923 31.2751C36.9102 31.2751 35.7071 32.4783 35.7071 33.9583C35.7071 35.4375 36.9102 36.6408 38.3923 36.6408C39.8706 36.6408 41.0736 35.4376 41.0736 33.9583C41.0736 32.4784 39.8706 31.2751 38.3923 31.2751ZM38.3923 35.3075C39.1354 35.3075 39.7409 34.7026 39.7409 33.9584C39.7409 33.2134 39.1354 32.6084 38.3923 32.6084C37.6454 32.6084 37.0399 33.2134 37.0399 33.9584C37.0399 34.7026 37.6454 35.3075 38.3923 35.3075Z"
                fill="#141414"
              />
            </g>
            <path
              d="M5.14 71.26C3.16 71.26 1.5 70.42 0.76 68.76L2.34 67.84C2.78 68.96 3.78 69.44 5.14 69.44C6.86 69.44 8 68.64 8 66.9V57H9.84V66.9C9.84 69.82 7.7 71.26 5.14 71.26ZM17.0747 71.26C14.1547 71.26 11.8147 68.96 11.8147 66C11.8147 63.04 14.1547 60.74 17.0747 60.74C19.9947 60.74 22.3547 63.04 22.3547 66C22.3547 68.96 19.9947 71.26 17.0747 71.26ZM17.0747 69.56C19.0747 69.56 20.6147 68.02 20.6147 66C20.6147 63.98 19.0747 62.44 17.0747 62.44C15.0947 62.44 13.5547 63.98 13.5547 66C13.5547 68.02 15.0947 69.56 17.0747 69.56ZM29.9259 60.74C32.7059 60.74 34.9859 63.04 34.9859 66C34.9859 68.96 32.7059 71.26 29.9259 71.26C28.2259 71.26 26.9459 70.5 26.1459 69.28V71H24.4059V57H26.1459V62.72C26.9459 61.5 28.2259 60.74 29.9259 60.74ZM29.7059 69.58C31.7059 69.58 33.2459 68.04 33.2459 66C33.2459 63.96 31.7059 62.42 29.7059 62.42C27.6859 62.42 26.1459 63.96 26.1459 66C26.1459 68.04 27.6859 69.58 29.7059 69.58ZM48.8222 71.26C44.5422 71.26 41.5022 68.02 41.5022 64C41.5022 59.96 44.5422 56.74 48.8222 56.74C51.4022 56.74 53.6822 58.08 54.8622 60.14L53.2422 61.08C52.4422 59.54 50.7422 58.54 48.8222 58.54C45.5422 58.54 43.3422 60.92 43.3422 64C43.3422 67.06 45.5422 69.44 48.8222 69.44C50.7422 69.44 52.4422 68.44 53.2422 66.92L54.8622 67.84C53.7022 69.9 51.4222 71.26 48.8222 71.26ZM57.9697 66.8C58.3097 68.6 59.7297 69.62 61.5897 69.62C62.9697 69.62 63.9697 68.98 64.4697 68.16L65.9497 69C65.0697 70.36 63.5497 71.26 61.5497 71.26C58.3297 71.26 56.1897 69 56.1897 66C56.1897 63.04 58.3097 60.74 61.4297 60.74C64.4497 60.74 66.4097 63.22 66.4097 66.02C66.4097 66.28 66.3897 66.54 66.3497 66.8H57.9697ZM61.4297 62.38C59.5497 62.38 58.2497 63.54 57.9697 65.28H64.6497C64.3497 63.3 62.9297 62.38 61.4297 62.38ZM73.3898 60.74C75.7298 60.74 77.2698 62.3 77.2698 64.86V71H75.5298V64.96C75.5298 63.32 74.5898 62.4 73.0498 62.4C71.4498 62.4 70.1498 63.34 70.1498 65.7V71H68.4098V61H70.1498V62.44C70.8898 61.26 71.9898 60.74 73.3898 60.74ZM85.1389 62.68H82.4789V68.1C82.4789 69.62 83.3589 69.52 85.1389 69.44V71C82.1389 71.4 80.7389 70.6 80.7389 68.1V62.68H78.7589V61H80.7389V58.72L82.4789 58.2V61H85.1389V62.68ZM87.9111 66.8C88.2511 68.6 89.6711 69.62 91.5311 69.62C92.9111 69.62 93.9111 68.98 94.4111 68.16L95.8911 69C95.0111 70.36 93.4911 71.26 91.4911 71.26C88.2711 71.26 86.1311 69 86.1311 66C86.1311 63.04 88.2511 60.74 91.3711 60.74C94.3911 60.74 96.3511 63.22 96.3511 66.02C96.3511 66.28 96.3311 66.54 96.2911 66.8H87.9111ZM91.3711 62.38C89.4911 62.38 88.1911 63.54 87.9111 65.28H94.5911C94.2911 63.3 92.8711 62.38 91.3711 62.38ZM100.091 62.68C100.731 61.28 101.951 60.82 103.211 60.82V62.64C101.711 62.58 100.091 63.34 100.091 65.7V71H98.3512V61H100.091V62.68Z"
              fill="#141414"
            />
            <defs>
              <clipPath id="clip0_8244_252291">
                <rect
                  width="40"
                  height="40"
                  fill="white"
                  transform="translate(29)"
                />
              </clipPath>
            </defs>
          </svg>