 <svg
                  xmlns="http://www.w3.org/2000/svg"
                  width="30"
                  height="30"
                  viewBox="0 0 30 30"
                  fill="none"
                >
                  <g clipPath="url(#clip0_8244_252558)">
                    <path
                      d="M15.0006 0.601562C7.04759 0.601562 0.600586 7.04856 0.600586 15.0016C0.600586 22.9546 7.04759 29.4016 15.0006 29.4016C22.9536 29.4016 29.4006 22.9546 29.4006 15.0016C29.4006 7.04856 22.9536 0.601562 15.0006 0.601562ZM11.4756 20.9701H8.55959V11.5861H11.4756V20.9701ZM9.99959 10.4341C9.07859 10.4341 8.48309 9.78156 8.48309 8.97456C8.48309 8.15106 9.09659 7.51806 10.0371 7.51806C10.9776 7.51806 11.5536 8.15106 11.5716 8.97456C11.5716 9.78156 10.9776 10.4341 9.99959 10.4341ZM22.1256 20.9701H19.2096V15.7696C19.2096 14.5591 18.7866 13.7371 17.7321 13.7371C16.9266 13.7371 16.4481 14.2936 16.2366 14.8291C16.1586 15.0196 16.1391 15.2896 16.1391 15.5581V20.9686H13.2216V14.5786C13.2216 13.4071 13.1841 12.4276 13.1451 11.5846H15.6786L15.8121 12.8881H15.8706C16.2546 12.2761 17.1951 11.3731 18.7686 11.3731C20.6871 11.3731 22.1256 12.6586 22.1256 15.4216V20.9701Z"
                      fill="#141414"
                    />
                  </g>
                  <defs>
                    <clipPath id="clip0_8244_252558">
                      <rect width="30" height="30" fill="white" />
                    </clipPath>
                  </defs>
                </svg>