<svg width="85" height="26" viewBox="0 0 85 26" fill="none" xmlns="http://www.w3.org/2000/svg">
<path d="M0.368 25V1.64H6.32V25H0.368ZM5.68 25V19.816H15.152V25H5.68ZM26.6308 25.64C25.0734 25.64 23.6868 25.4053 22.4708 24.936C21.2548 24.4667 20.2201 23.816 19.3668 22.984C18.5348 22.152 17.8948 21.192 17.4468 20.104C17.0201 19.016 16.8068 17.8533 16.8068 16.616V15.848C16.8068 14.568 17.0308 13.3733 17.4788 12.264C17.9481 11.1547 18.6094 10.184 19.4628 9.352C20.3161 8.52 21.3508 7.86933 22.5668 7.4C23.7828 6.93067 25.1374 6.696 26.6308 6.696C28.1454 6.696 29.5001 6.93067 30.6948 7.4C31.9108 7.86933 32.9454 8.52 33.7987 9.352C34.6521 10.184 35.3028 11.1547 35.7508 12.264C36.2201 13.3733 36.4548 14.568 36.4548 15.848V16.616C36.4548 17.8533 36.2308 19.016 35.7828 20.104C35.3561 21.192 34.7161 22.152 33.8628 22.984C33.0308 23.816 32.0068 24.4667 30.7908 24.936C29.5748 25.4053 28.1881 25.64 26.6308 25.64ZM26.6308 20.776C27.5268 20.776 28.2628 20.584 28.8388 20.2C29.4361 19.816 29.8841 19.2827 30.1828 18.6C30.4814 17.896 30.6308 17.1067 30.6308 16.232C30.6308 15.3147 30.4708 14.5147 30.1508 13.832C29.8521 13.128 29.4041 12.5733 28.8068 12.168C28.2094 11.7627 27.4841 11.56 26.6308 11.56C25.7774 11.56 25.0521 11.7627 24.4548 12.168C23.8574 12.5733 23.3988 13.128 23.0788 13.832C22.7801 14.5147 22.6308 15.3147 22.6308 16.232C22.6308 17.1067 22.7801 17.896 23.0788 18.6C23.3774 19.2827 23.8254 19.816 24.4228 20.2C25.0201 20.584 25.7561 20.776 26.6308 20.776Z" fill="#CBAB96"/>
<path d="M51.1953 25.64C48.9979 25.64 47.1099 25.2773 45.5312 24.552C43.9526 23.8053 42.6619 22.8347 41.6593 21.64C40.6566 20.4453 39.9206 19.144 39.4513 17.736C38.9819 16.328 38.7473 14.952 38.7473 13.608V12.904C38.7473 11.4533 38.9926 10.024 39.4833 8.616C39.9739 7.18667 40.7099 5.896 41.6913 4.744C42.6939 3.592 43.9419 2.67467 45.4353 1.992C46.9286 1.288 48.6779 0.935999 50.6833 0.935999C52.8379 0.935999 54.7366 1.33067 56.3793 2.12C58.0433 2.90933 59.3766 4.008 60.3793 5.416C61.3819 6.80267 61.9686 8.41333 62.1393 10.248H56.1873C56.0593 9.544 55.7499 8.91467 55.2593 8.36C54.7686 7.784 54.1286 7.336 53.3393 7.016C52.5713 6.67467 51.6859 6.504 50.6833 6.504C49.7233 6.504 48.8699 6.67467 48.1233 7.016C47.3979 7.336 46.7793 7.80533 46.2673 8.424C45.7766 9.02133 45.4033 9.736 45.1473 10.568C44.8913 11.4 44.7633 12.3067 44.7633 13.288C44.7633 14.2693 44.9019 15.1867 45.1793 16.04C45.4566 16.872 45.8619 17.608 46.3953 18.248C46.9286 18.8667 47.6006 19.3467 48.4113 19.688C49.2219 20.0293 50.1499 20.2 51.1953 20.2C52.5179 20.2 53.6593 19.9227 54.6193 19.368C55.5793 18.8133 56.2513 18.0773 56.6353 17.16L56.1873 20.68V15.592H61.6273V20.392C60.6459 22.0773 59.2486 23.3787 57.4353 24.296C55.6433 25.192 53.5633 25.64 51.1953 25.64ZM50.5553 16.744V12.584H63.5473V16.744H50.5553ZM75.0995 25.64C73.5422 25.64 72.1555 25.4053 70.9395 24.936C69.7235 24.4667 68.6888 23.816 67.8355 22.984C67.0035 22.152 66.3635 21.192 65.9155 20.104C65.4888 19.016 65.2755 17.8533 65.2755 16.616V15.848C65.2755 14.568 65.4995 13.3733 65.9475 12.264C66.4168 11.1547 67.0782 10.184 67.9315 9.352C68.7848 8.52 69.8195 7.86933 71.0355 7.4C72.2515 6.93067 73.6062 6.696 75.0995 6.696C76.6142 6.696 77.9688 6.93067 79.1635 7.4C80.3795 7.86933 81.4142 8.52 82.2675 9.352C83.1208 10.184 83.7715 11.1547 84.2195 12.264C84.6888 13.3733 84.9235 14.568 84.9235 15.848V16.616C84.9235 17.8533 84.6995 19.016 84.2515 20.104C83.8248 21.192 83.1848 22.152 82.3315 22.984C81.4995 23.816 80.4755 24.4667 79.2595 24.936C78.0435 25.4053 76.6568 25.64 75.0995 25.64ZM75.0995 20.776C75.9955 20.776 76.7315 20.584 77.3075 20.2C77.9048 19.816 78.3528 19.2827 78.6515 18.6C78.9502 17.896 79.0995 17.1067 79.0995 16.232C79.0995 15.3147 78.9395 14.5147 78.6195 13.832C78.3208 13.128 77.8728 12.5733 77.2755 12.168C76.6782 11.7627 75.9528 11.56 75.0995 11.56C74.2462 11.56 73.5208 11.7627 72.9235 12.168C72.3262 12.5733 71.8675 13.128 71.5475 13.832C71.2488 14.5147 71.0995 15.3147 71.0995 16.232C71.0995 17.1067 71.2488 17.896 71.5475 18.6C71.8462 19.2827 72.2942 19.816 72.8915 20.2C73.4888 20.584 74.2248 20.776 75.0995 20.776Z" fill="#141414"/>
</svg>
