<svg width="50" height="50" viewBox="0 0 50 50" fill="none" xmlns="http://www.w3.org/2000/svg">
<path d="M25.5 2C13.0913 2 3 12.0913 3 24.5C3 36.9087 13.0913 47 25.5 47C37.9087 47 48 36.9087 48 24.5C48 12.0913 37.9087 2 25.5 2Z" fill="#363636"/>
<path d="M25.9968 27.1748C21.6838 27.1748 17.9998 27.8548 17.9998 30.5748C17.9998 33.2958 21.6608 33.9998 25.9968 33.9998C30.3098 33.9998 33.9938 33.3208 33.9938 30.5998C33.9938 27.8788 30.3338 27.1748 25.9968 27.1748Z" fill="#CBAB96"/>
<path d="M25.9967 24.584C28.9347 24.584 31.2887 22.229 31.2887 19.292C31.2887 16.355 28.9347 14 25.9967 14C23.0597 14 20.7047 16.355 20.7047 19.292C20.7047 22.229 23.0597 24.584 25.9967 24.584Z" fill="#CBAB96"/>
</svg>
