<svg width="50" height="50" viewBox="0 0 50 50" fill="none" xmlns="http://www.w3.org/2000/svg">
<g clip-path="url(#clip0_7318_5771)">
<path d="M38.0869 27.6638L29.5328 24.3511C29.254 24.2431 29.0143 24.0532 28.8453 23.8065C28.6764 23.5598 28.586 23.2677 28.586 22.9687V20.6699C27.5687 21.3719 26.3369 21.7842 25.0102 21.7842C23.6216 21.7842 22.4013 21.4031 21.4033 20.7653V22.9694C21.4034 23.2684 21.313 23.5603 21.1441 23.807C20.9752 24.0536 20.7357 24.2434 20.4569 24.3515L11.9131 27.6638C11.9131 27.6638 8.39941 29.1084 8.39941 33.1143V48.8289C8.39941 49.4754 8.92354 49.9996 9.57051 49.9996H40.4295C41.0761 49.9996 41.6006 49.4755 41.6006 48.8289V33.1143C41.6006 29.1084 38.0869 27.6638 38.0869 27.6638Z" fill="#CBAB96"/>
<path d="M24.4265 28.1313V21.7604C23.2783 21.6693 22.259 21.3122 21.4034 20.7656V22.9697C21.4034 23.332 21.271 23.6716 21.0452 23.9349L24.4265 28.1313Z" fill="#CBAB96"/>
<path d="M38.0869 27.6637L28.5963 23.9844L28.594 23.9875L28.5864 23.9844L25.0002 28.411L21.4137 23.9844L21.4061 23.9875L21.4037 23.9844L11.9131 27.6637C11.9131 27.6637 8.39941 29.1083 8.39941 33.1142V48.8288C8.39941 49.4746 8.92314 49.9995 9.57051 49.9995H40.4295C41.0761 49.9995 41.6003 49.4754 41.6003 48.8288V33.1142C41.6006 29.1083 38.0869 27.6637 38.0869 27.6637Z" fill="#363636"/>
<path d="M11.4168 48.8299V31.7068C11.4168 29.2056 12.7871 27.7029 13.8162 26.927L11.9135 27.6647C11.9135 27.6647 8.39941 29.1094 8.39941 33.1152V48.8299C8.39941 49.4757 8.92354 50.0006 9.57051 50.0006H12.588C11.941 50.0006 11.4168 49.4757 11.4168 48.8299ZM15.1331 50.0006V38.1922C15.1331 37.9921 15.0535 37.8002 14.9121 37.6587C14.7706 37.5172 14.5787 37.4377 14.3786 37.4376C14.1785 37.4377 13.9866 37.5172 13.8451 37.6587C13.7036 37.8002 13.6241 37.9921 13.624 38.1922V50.0006H15.1331ZM36.376 50.0006V38.1922C36.376 37.7756 36.0381 37.4376 35.6215 37.4376C35.2049 37.4376 34.8669 37.7756 34.8669 38.1922V50.0006H36.376Z" fill="#363636"/>
<path d="M21.4987 30.9053L25.0001 28.4186L21.1973 23.7246C21.028 24.0111 20.7672 24.2324 20.4569 24.3528L18.0525 25.2852L20.664 30.6963C20.8193 31.0076 21.2152 31.1067 21.4987 30.9053Z" fill="white"/>
<path d="M29.5273 24.332C29.2171 24.212 28.9619 24.0104 28.7927 23.724L24.9949 28.4176L28.4963 30.9044C28.7797 31.1055 29.1757 31.0066 29.3313 30.6954L29.7719 29.8222L32.8975 25.6429L29.5273 24.332ZM21.2451 26.0986C21.0333 25.66 21.2408 25.1335 21.6951 24.9572L22.0766 24.8093L21.1969 23.7236C21.0279 24.0103 20.7672 24.2316 20.4569 24.3519L18.0525 25.2842L20.6636 30.6953C20.8189 31.0066 21.2152 31.1058 21.4986 30.9043L23.0367 29.8118L21.2451 26.0986Z" fill="white"/>
<path d="M27.4202 47.1574L26.2106 31.9932H23.7845L22.5782 47.1643C22.5659 47.3179 22.586 47.4724 22.6374 47.6177C22.6887 47.763 22.7701 47.8959 22.8762 48.0077L24.6223 49.8402C24.6699 49.8905 24.7272 49.9306 24.7907 49.958C24.8543 49.9854 24.9228 49.9996 24.992 49.9997C25.0612 49.9998 25.1297 49.9858 25.1934 49.9586C25.257 49.9314 25.3145 49.8915 25.3622 49.8414L27.1208 48.0023C27.2274 47.8906 27.3092 47.7575 27.3608 47.6119C27.4124 47.4663 27.4327 47.3114 27.4202 47.1574Z" fill="white"/>
<path d="M25.9531 48.0077C25.8471 47.8959 25.7657 47.763 25.7144 47.6177C25.6631 47.4724 25.6429 47.3179 25.6553 47.1643L26.5364 36.0803L26.2107 31.9932H23.7845L22.5782 47.1643C22.5659 47.3179 22.586 47.4724 22.6374 47.6177C22.6887 47.763 22.7701 47.8959 22.8762 48.0077L24.6223 49.8402C24.6699 49.8905 24.7272 49.9306 24.7907 49.958C24.8543 49.9854 24.9228 49.9996 24.992 49.9997C25.0612 49.9998 25.1297 49.9858 25.1934 49.9586C25.257 49.9314 25.3145 49.8915 25.3622 49.8414L26.5333 48.6168L25.9531 48.0077Z" fill="white"/>
<path d="M25.0002 28.4218V28.418L24.9976 28.4199L24.9953 28.418V28.4219L22.5154 30.1826L23.7875 32.0361H26.2076L27.4798 30.1826L25.0002 28.4218Z" fill="white"/>
<path d="M26.0104 29.8858L26.5361 29.5124L25.0002 28.4218V28.418L24.9976 28.4199L24.9953 28.418V28.4219L22.5154 30.1826L23.7875 32.0361H26.2076L26.5361 31.5578L25.8822 30.6054C25.8049 30.4926 25.7751 30.354 25.7991 30.2194C25.8231 30.0848 25.8989 29.965 26.0104 29.8858Z" fill="white"/>
<path d="M24.9182 0C20.1716 0 16.3237 3.84785 16.3237 8.59453V11.8683C16.8981 11.3357 17.8159 11.0466 18.6137 11.153V8.91416C18.6137 8.57393 18.9043 8.30498 19.2412 8.33057C20.5522 8.4248 21.7715 8.31719 23.0467 8.05019C24.281 7.79118 25.5557 7.79118 26.79 8.05019C28.0649 8.31719 29.2845 8.4248 30.5957 8.33047C30.9324 8.30498 31.2231 8.57393 31.2231 8.91416V11.1511C32.0975 11.0202 32.9737 11.2903 33.5127 11.7912V8.59453C33.5127 3.84785 29.6648 0 24.9182 0Z" fill="#363636"/>
<path d="M26.427 0.134668C25.9289 0.0456159 25.4241 0.000552841 24.9182 0C20.1716 0 16.3237 3.84785 16.3237 8.59453V11.8683C16.8981 11.3357 17.8159 11.0466 18.6137 11.153V8.91416C18.6137 8.57393 18.9043 8.30498 19.2412 8.33057C19.2771 8.33281 19.3121 8.33398 19.3477 8.33623C19.4697 4.22061 22.4824 0.833496 26.427 0.134668Z" fill="#363636"/>
<path d="M31.2959 11.0284V15.7807C31.2959 15.8318 31.2934 15.8829 31.2922 15.934C32.9737 16.1889 34.2909 14.9739 34.2909 13.4816C34.2909 11.9862 32.9726 10.777 31.296 11.0284H31.2959ZM18.5396 15.7795V11.0314C17.076 10.8357 15.5459 11.9587 15.5459 13.4816C15.5459 14.9712 16.8597 16.1881 18.5431 15.9328C18.5419 15.8818 18.5396 15.8307 18.5396 15.7795Z" fill="#CBAB96"/>
<path d="M33.5089 11.6775C32.9649 11.1698 32.1803 10.8958 31.296 11.0283V15.7802C31.296 15.8317 31.2934 15.8828 31.2921 15.9339C32.1791 16.0682 32.9646 15.7936 33.5089 15.2851V11.6775ZM18.5396 15.2835C18.2926 15.053 18.0958 14.774 17.9614 14.4639C17.8271 14.1538 17.7581 13.8194 17.7588 13.4815C17.7588 12.7979 18.0674 12.1959 18.5396 11.7565V11.0313C17.076 10.8356 15.5459 11.9586 15.5459 13.4815C15.5459 14.9711 16.8597 16.188 18.5435 15.9328C18.5419 15.8817 18.5396 15.8306 18.5396 15.7794L18.5396 15.2835Z" fill="#CBAB96"/>
<path d="M30.6959 8.12991C29.3849 8.22415 28.065 8.11653 26.7901 7.84954C25.5556 7.59052 24.2808 7.59052 23.0463 7.84954C21.7715 8.11653 20.4516 8.22415 19.1409 8.12991C18.8037 8.10432 18.5129 8.37327 18.5129 8.7136V15.7593C18.5129 19.1693 21.1818 22.0253 24.9182 22.0711C28.6452 22.0257 31.3239 19.1815 31.3239 15.7593V8.7136C31.3239 8.37327 31.0329 8.10432 30.6959 8.12991Z" fill="#CBAB96"/>
<path d="M21.5606 15.7592V8.08398C20.759 8.16914 19.9481 8.18818 19.1409 8.13018C18.8037 8.10459 18.5129 8.37353 18.5129 8.71387V15.7596C18.5129 19.1695 21.1818 22.0256 24.9182 22.0714C25.4315 22.0654 25.9425 22.0032 26.4422 21.8859C23.5251 21.2004 21.5606 18.6848 21.5606 15.7592Z" fill="#CBAB96"/>
</g>
<defs>
<clipPath id="clip0_7318_5771">
<rect width="50" height="50" fill="white"/>
</clipPath>
</defs>
</svg>
