  <svg
            width="115"
            height="100"
            viewBox="0 0 115 100"
            fill="none"
            xmlns="http://www.w3.org/2000/svg"
          >
            <path
              d="M46.6666 10.1654C45.3333 8.83203 39.6666 8.49875 37.8333 8.33203C37.6666 8.33203 37.4999 8.33203 37.3333 8.49867C37.1666 8.66539 37 8.99875 37 9.16539V24.1654C37 24.6654 37.3334 24.9988 37.8334 24.9988H42.8334C43.1667 24.9988 43.5 24.8321 43.6667 24.4988C43.6667 23.9988 46.6667 15.1654 47.0001 10.8321C47 10.6654 47 10.3321 46.6666 10.1654ZM64.5 14.1654C62.8334 13.6654 61.3334 12.9988 60 12.4987C57 11.1654 55.6666 11.8321 53 14.4988C51.8334 15.6654 51 17.3321 51.1666 17.9987C51.1666 18.1654 51.1666 18.1654 51.5 18.3321C52.3334 18.6655 53.5 18.8321 54.6666 16.9988C54.8333 16.8321 55 16.6654 55.3333 16.6654C55.8333 16.6654 55.9999 16.4987 56.4999 16.332C56.8333 16.1654 57.1666 15.9987 57.6666 15.832H57.9999C58.1666 15.832 58.4999 15.9987 58.6666 15.9987C59.5 16.8321 61 17.9987 62.5 19.3321C64.8334 21.1655 67.1666 23.1655 68.3334 24.6655H68.5C67.3334 21.3321 65.3334 15.6654 64.5 14.1654ZM76.1666 9.99875C69.6666 9.99875 66 11.6654 65.8333 11.6654L65.3333 12.1654C65.3333 12.332 65.3333 12.6654 65.4999 12.832C66.4999 14.4987 69.8333 23.6654 70.3333 25.9987C70.4999 26.332 70.8333 26.6653 71.1666 26.6653H76.1666C76.6666 26.6653 77 26.332 77 25.832V10.832C77 10.3321 76.6666 9.99875 76.1666 9.99875Z"
              fill="black"
            />
            <path
              d="M67.1669 26.332C66.5003 24.832 63.6669 22.6654 61.1669 20.6654C59.8336 19.4987 58.5003 18.4987 57.5003 17.6653C57.3336 17.832 57.0003 17.832 57.0003 17.9987C56.5003 18.1653 56.3336 18.332 55.6669 18.332C54.3336 19.9987 52.6669 20.6653 50.8336 19.9987C50.0003 19.832 49.5003 19.1653 49.3336 18.4987C49.0003 16.832 50.5003 14.4987 51.667 13.332H48.3336C47.667 16.6654 46.5003 20.9987 45.667 23.332C46.3336 23.9987 47.0004 24.832 47.5004 25.1654C50.667 27.832 54.3337 30.4987 55.0004 30.9987C55.5004 31.3321 56.5004 31.6654 57.0004 31.6654H57.5004L54.8336 28.9987C54.5003 28.6653 54.5003 28.1653 54.8336 27.832C55.167 27.4987 55.667 27.4987 56.0003 27.832L59.3336 31.1654C59.667 31.4987 60.0003 31.332 60.3336 31.332C60.8336 31.1654 61.0003 30.832 61.167 30.332L57.3336 26.4987C57.0003 26.1653 57.0003 25.6653 57.3336 25.332C57.667 24.9987 58.167 24.9987 58.5003 25.332L62.6669 29.4987C62.8336 29.6653 63.5003 29.6653 64.0003 29.4987C64.1669 29.332 64.5003 29.1653 64.6669 28.832L60.0003 24.1653C59.6669 23.832 59.6669 23.332 60.0003 22.9987C60.3336 22.6654 60.8336 22.6653 61.1669 22.9987L66.0003 27.832C66.3336 27.9987 66.6669 27.832 67.0003 27.6654C67.1669 27.4987 67.5003 26.9987 67.1669 26.332Z"
              fill="black"
            />
            <path
              d="M9.28508 57C11.8651 57 13.8051 58.94 13.8051 61.5C13.8051 64.04 11.8651 66 9.28508 66H6.06508V71H4.20508V57H9.28508ZM9.28508 64.26C10.8251 64.26 11.9651 63.08 11.9651 61.5C11.9651 59.9 10.8251 58.74 9.28508 58.74H6.06508V64.26H9.28508ZM23.3402 61H25.0802V71H23.3402V69.28C22.5402 70.5 21.2602 71.26 19.5602 71.26C16.7802 71.26 14.5002 68.96 14.5002 66C14.5002 63.04 16.7802 60.74 19.5602 60.74C21.2602 60.74 22.5402 61.5 23.3402 62.72V61ZM19.7802 69.58C21.8002 69.58 23.3402 68.04 23.3402 66C23.3402 63.96 21.8002 62.42 19.7802 62.42C17.7802 62.42 16.2402 63.96 16.2402 66C16.2402 68.04 17.7802 69.58 19.7802 69.58ZM29.4565 62.68C30.0965 61.28 31.3165 60.82 32.5765 60.82V62.64C31.0765 62.58 29.4565 63.34 29.4565 65.7V71H27.7165V61H29.4565V62.68ZM39.9534 62.68H37.2934V68.1C37.2934 69.62 38.1734 69.52 39.9534 69.44V71C36.9534 71.4 35.5534 70.6 35.5534 68.1V62.68H33.5734V61H35.5534V58.72L37.2934 58.2V61H39.9534V62.68ZM47.052 60.74C49.392 60.74 50.932 62.3 50.932 64.86V71H49.192V64.96C49.192 63.32 48.252 62.4 46.712 62.4C45.112 62.4 43.812 63.34 43.812 65.7V71H42.072V61H43.812V62.44C44.552 61.26 45.652 60.74 47.052 60.74ZM54.581 66.8C54.921 68.6 56.341 69.62 58.201 69.62C59.581 69.62 60.581 68.98 61.081 68.16L62.561 69C61.681 70.36 60.161 71.26 58.161 71.26C54.941 71.26 52.801 69 52.801 66C52.801 63.04 54.921 60.74 58.041 60.74C61.061 60.74 63.021 63.22 63.021 66.02C63.021 66.28 63.001 66.54 62.961 66.8H54.581ZM58.041 62.38C56.161 62.38 54.861 63.54 54.581 65.28H61.261C60.961 63.3 59.541 62.38 58.041 62.38ZM66.7612 62.68C67.4012 61.28 68.6212 60.82 69.8812 60.82V62.64C68.3812 62.58 66.7612 63.34 66.7612 65.7V71H65.0212V61H66.7612V62.68ZM72.7126 63.7C72.7126 65.84 78.3126 64.58 78.3126 68.26C78.3126 70.12 76.7126 71.26 74.5726 71.26C72.5726 71.26 71.1726 70.3 70.5926 68.92L72.0926 68.06C72.4126 69.02 73.3326 69.62 74.5726 69.62C75.6326 69.62 76.5526 69.24 76.5526 68.26C76.5526 66.12 70.9526 67.34 70.9526 63.72C70.9526 61.96 72.4726 60.74 74.4926 60.74C76.1326 60.74 77.4526 61.52 78.0926 62.82L76.6326 63.64C76.2526 62.74 75.3726 62.36 74.4926 62.36C73.5926 62.36 72.7126 62.8 72.7126 63.7ZM85.2551 60.74C87.5951 60.74 89.1351 62.3 89.1351 64.86V71H87.3951V64.96C87.3951 63.32 86.4551 62.4 84.9151 62.4C83.3151 62.4 82.0151 63.34 82.0151 65.7V71H80.2751V57H82.0151V62.44C82.7551 61.26 83.8551 60.74 85.2551 60.74ZM92.4441 59.18C91.7841 59.18 91.2641 58.66 91.2641 58.02C91.2641 57.38 91.7841 56.84 92.4441 56.84C93.0841 56.84 93.6041 57.38 93.6041 58.02C93.6041 58.66 93.0841 59.18 92.4441 59.18ZM91.5641 71V61H93.3041V71H91.5641ZM101.479 60.74C104.259 60.74 106.539 63.04 106.539 66C106.539 68.96 104.259 71.26 101.479 71.26C99.7787 71.26 98.4987 70.5 97.6987 69.28V75H95.9587V61H97.6987V62.72C98.4987 61.5 99.7787 60.74 101.479 60.74ZM101.259 69.58C103.259 69.58 104.799 68.04 104.799 66C104.799 63.96 103.259 62.42 101.259 62.42C99.2387 62.42 97.6987 63.96 97.6987 66C97.6987 68.04 99.2387 69.58 101.259 69.58ZM10.7884 95L9.64836 91.86H3.34836L2.20836 95H0.228359L5.44836 81H7.54836L12.7684 95H10.7884ZM3.98836 90.12H9.00836L6.48836 83.22L3.98836 90.12ZM14.2399 95V80.4H15.9799V95H14.2399ZM18.6345 95V80.4H20.3745V95H18.6345ZM23.909 83.18C23.249 83.18 22.729 82.66 22.729 82.02C22.729 81.38 23.249 80.84 23.909 80.84C24.549 80.84 25.069 81.38 25.069 82.02C25.069 82.66 24.549 83.18 23.909 83.18ZM23.029 95V85H24.769V95H23.029ZM35.7035 85H37.4435V95H35.7035V93.28C34.9035 94.5 33.6235 95.26 31.9235 95.26C29.1435 95.26 26.8635 92.96 26.8635 90C26.8635 87.04 29.1435 84.74 31.9235 84.74C33.6235 84.74 34.9035 85.5 35.7035 86.72V85ZM32.1435 93.58C34.1635 93.58 35.7035 92.04 35.7035 90C35.7035 87.96 34.1635 86.42 32.1435 86.42C30.1435 86.42 28.6035 87.96 28.6035 90C28.6035 92.04 30.1435 93.58 32.1435 93.58ZM45.0598 84.74C47.3998 84.74 48.9398 86.3 48.9398 88.86V95H47.1998V88.96C47.1998 87.32 46.2598 86.4 44.7198 86.4C43.1198 86.4 41.8198 87.34 41.8198 89.7V95H40.0798V85H41.8198V86.44C42.5598 85.26 43.6598 84.74 45.0598 84.74ZM56.0688 95.26C53.0488 95.26 50.8088 92.96 50.8088 90C50.8088 87.04 53.0488 84.74 56.0688 84.74C58.0488 84.74 59.7288 85.78 60.4888 87.36L59.0288 88.2C58.5288 87.14 57.4088 86.44 56.0688 86.44C54.0688 86.44 52.5488 87.98 52.5488 90C52.5488 92 54.0688 93.54 56.0688 93.54C57.4288 93.54 58.5288 92.84 59.0888 91.8L60.5688 92.66C59.7288 94.22 58.0288 95.26 56.0688 95.26ZM63.3701 90.8C63.7101 92.6 65.1301 93.62 66.9901 93.62C68.3701 93.62 69.3701 92.98 69.8701 92.16L71.3501 93C70.4701 94.36 68.9501 95.26 66.9501 95.26C63.7301 95.26 61.5901 93 61.5901 90C61.5901 87.04 63.7101 84.74 66.8301 84.74C69.8501 84.74 71.8101 87.22 71.8101 90.02C71.8101 90.28 71.7901 90.54 71.7501 90.8H63.3701ZM66.8301 86.38C64.9501 86.38 63.6501 87.54 63.3701 89.28H70.0501C69.7501 87.3 68.3301 86.38 66.8301 86.38ZM87.6502 81H89.4902V95H87.6502V88.7H80.8502V95H78.9902V81H80.8502V86.94H87.6502V81ZM99.2063 85H100.946V95H99.2063V93.56C98.4663 94.74 97.3663 95.26 95.9663 95.26C93.6263 95.26 92.0863 93.7 92.0863 91.14V85H93.8263V91.04C93.8263 92.68 94.7663 93.6 96.3063 93.6C97.9063 93.6 99.2063 92.66 99.2063 90.3V85ZM109.115 84.74C111.895 84.74 114.175 87.04 114.175 90C114.175 92.96 111.895 95.26 109.115 95.26C107.415 95.26 106.135 94.5 105.335 93.28V95H103.595V81H105.335V86.72C106.135 85.5 107.415 84.74 109.115 84.74ZM108.895 93.58C110.895 93.58 112.435 92.04 112.435 90C112.435 87.96 110.895 86.42 108.895 86.42C106.875 86.42 105.335 87.96 105.335 90C105.335 92.04 106.875 93.58 108.895 93.58Z"
              fill="#141414"
            />
          </svg>