 <svg
            width="98"
            height="76"
            viewBox="0 0 98 76"
            fill="none"
            xmlns="http://www.w3.org/2000/svg"
          >
            <path
              d="M63.1665 3H51.3903C50.6113 3 49.5225 3.45132 48.972 4.00133L32.8268 20.1466C31.7244 21.2478 31.7244 23.0533 32.8268 24.1531L44.8483 36.1743C45.9482 37.2755 47.7518 37.2755 48.8534 36.173L64.9987 20.0302C65.5486 19.4803 66 18.3897 66 17.6123V5.83348C66 4.27542 64.7245 3 63.1665 3ZM57.4995 14.3335C55.9347 14.3335 54.6661 13.0636 54.6661 11.5C54.6661 9.93391 55.9347 8.66655 57.4995 8.66655C59.0644 8.66655 60.3334 9.93391 60.3334 11.5C60.3335 13.0636 59.0644 14.3335 57.4995 14.3335Z"
              fill="#141414"
            />
            <path
              d="M15 64.06V64.9C15 68.46 12.36 71.26 8.14 71.26C3.82 71.26 0.76 68 0.76 64C0.76 59.98 3.84 56.74 8.1 56.74C10.72 56.74 13 58.12 14.16 60.12L12.56 61.06C11.76 59.56 10.06 58.54 8.08 58.54C4.84 58.54 2.6 60.94 2.6 64C2.6 67.04 4.82 69.44 8.16 69.44C11.06 69.44 12.78 67.84 13.14 65.74H8V64.06H15ZM18.3017 66.8C18.6417 68.6 20.0617 69.62 21.9217 69.62C23.3017 69.62 24.3017 68.98 24.8017 68.16L26.2817 69C25.4017 70.36 23.8817 71.26 21.8817 71.26C18.6617 71.26 16.5217 69 16.5217 66C16.5217 63.04 18.6417 60.74 21.7617 60.74C24.7817 60.74 26.7417 63.22 26.7417 66.02C26.7417 66.28 26.7217 66.54 26.6817 66.8H18.3017ZM21.7617 62.38C19.8817 62.38 18.5817 63.54 18.3017 65.28H24.9817C24.6817 63.3 23.2617 62.38 21.7617 62.38ZM33.8889 62.68H31.2289V68.1C31.2289 69.62 32.1089 69.52 33.8889 69.44V71C30.8889 71.4 29.4889 70.6 29.4889 68.1V62.68H27.5089V61H29.4889V58.72L31.2289 58.2V61H33.8889V62.68ZM54.9475 64C54.9475 65.94 54.1875 67.68 52.9675 68.98L54.5075 70.52L53.2275 71.68L51.6475 70.08C50.5075 70.82 49.1475 71.26 47.6875 71.26C43.6875 71.26 40.4475 68.02 40.4475 64C40.4475 59.96 43.6875 56.74 47.6875 56.74C51.6875 56.74 54.9475 59.96 54.9475 64ZM47.6875 69.44C48.6475 69.44 49.5475 69.2 50.3275 68.76L47.5275 65.94L48.8075 64.8L51.6875 67.68C52.5675 66.72 53.0875 65.44 53.0875 64C53.0875 60.92 50.6875 58.54 47.6875 58.54C44.6875 58.54 42.2875 60.92 42.2875 64C42.2875 67.06 44.6875 69.44 47.6875 69.44ZM64.0989 61H65.8389V71H64.0989V69.56C63.3589 70.74 62.2589 71.26 60.8589 71.26C58.5189 71.26 56.9789 69.7 56.9789 67.14V61H58.7189V67.04C58.7189 68.68 59.6589 69.6 61.1989 69.6C62.7989 69.6 64.0989 68.66 64.0989 66.3V61ZM73.188 71.26C70.268 71.26 67.928 68.96 67.928 66C67.928 63.04 70.268 60.74 73.188 60.74C76.108 60.74 78.468 63.04 78.468 66C78.468 68.96 76.108 71.26 73.188 71.26ZM73.188 69.56C75.188 69.56 76.728 68.02 76.728 66C76.728 63.98 75.188 62.44 73.188 62.44C71.208 62.44 69.668 63.98 69.668 66C69.668 68.02 71.208 69.56 73.188 69.56ZM85.7444 62.68H83.0844V68.1C83.0844 69.62 83.9644 69.52 85.7444 69.44V71C82.7444 71.4 81.3444 70.6 81.3444 68.1V62.68H79.3644V61H81.3444V58.72L83.0844 58.2V61H85.7444V62.68ZM88.5166 66.8C88.8566 68.6 90.2766 69.62 92.1366 69.62C93.5166 69.62 94.5166 68.98 95.0166 68.16L96.4966 69C95.6166 70.36 94.0966 71.26 92.0966 71.26C88.8766 71.26 86.7366 69 86.7366 66C86.7366 63.04 88.8566 60.74 91.9766 60.74C94.9966 60.74 96.9566 63.22 96.9566 66.02C96.9566 66.28 96.9366 66.54 96.8966 66.8H88.5166ZM91.9766 62.38C90.0966 62.38 88.7966 63.54 88.5166 65.28H95.1966C94.8966 63.3 93.4766 62.38 91.9766 62.38Z"
              fill="#141414"
            />
          </svg>