<svg width="120" height="31" viewBox="0 0 120 31" fill="none" xmlns="http://www.w3.org/2000/svg">
<g clip-path="url(#clip0_7897_158347)">
<circle cx="71.5" cy="26.166" r="2.5" fill="#363636"/>
<circle cx="84.5" cy="26.166" r="2.5" fill="#363636"/>
<path d="M82 14.666H88L90.5 20.666L90 26.666H87L86 24.166H83L82 26.666V14.666Z" fill="#363636"/>
<path d="M66 11.666H81V25.666H74L72 24.166L69 25.666H66V11.666Z" fill="#363636"/>
<path d="M91.0013 19.2481L91.0012 19.2481L88.5013 14.2482L88.4118 14.2929L88.5013 14.2482C88.4238 14.0932 88.3046 13.9628 88.1571 13.8717C88.0097 13.7805 87.8398 13.7323 87.6664 13.7323H82.7665V11.3323C82.7665 11.0848 82.6682 10.8474 82.4932 10.6724C82.3181 10.4974 82.0807 10.399 81.8332 10.399H65.1668C64.9193 10.399 64.6819 10.4974 64.5069 10.6724C64.3318 10.8474 64.2335 11.0848 64.2335 11.3323V26.3321C64.2335 26.5796 64.3318 26.817 64.5069 26.9921C64.6819 27.1671 64.9193 27.2654 65.1668 27.2654H68.5416C69.0377 29.0494 70.8713 30.1186 72.6751 29.6602C73.2709 29.5088 73.8149 29.1994 74.2496 28.7646C74.666 28.3483 74.9674 27.8318 75.1252 27.2654H81.0413C81.5375 29.0494 83.3711 30.1186 85.1749 29.6602C85.7707 29.5088 86.3147 29.1994 86.7494 28.7646C87.1658 28.3483 87.4672 27.8318 87.625 27.2654H90.1664C90.4139 27.2654 90.6513 27.1671 90.8264 26.9921C91.0014 26.817 91.0997 26.5796 91.0997 26.3321V19.6655C91.0997 19.5207 91.066 19.3778 91.0013 19.2481ZM71.8337 22.8988L71.8331 22.8988C70.2978 22.9035 68.9561 23.927 68.5418 25.3988H66.1001V12.2657H80.8999V25.3988H75.1249C74.7107 23.927 73.3689 22.9035 71.8337 22.8988ZM84.3335 22.8988L84.3326 22.8988C83.7857 22.9019 83.2486 23.0371 82.7665 23.2918V15.5989H84.2332V19.6655C84.2332 19.9131 84.3315 20.1505 84.5065 20.3255C84.6816 20.5005 84.9189 20.5989 85.1665 20.5989H89.2331V25.3988H87.6247C87.2105 23.927 85.8687 22.9035 84.3335 22.8988ZM71.8333 27.8987C70.968 27.8987 70.2667 27.1973 70.2667 26.3321C70.2667 25.4668 70.9681 24.7655 71.8334 24.7655C72.6986 24.7655 73.4 25.4668 73.4 26.332C73.3991 27.1969 72.6982 27.8979 71.8333 27.8987ZM86.0998 15.5989H87.0895L88.6563 18.7322H86.0998V15.5989ZM84.3331 27.8987C83.4678 27.8987 82.7665 27.1973 82.7665 26.3321C82.7665 25.4668 83.4679 24.7655 84.3332 24.7655C85.1984 24.7655 85.8997 25.4668 85.8998 26.332C85.8989 27.1969 85.198 27.8979 84.3331 27.8987Z" fill="#CBAB96" stroke="white" stroke-width="0.2"/>
<path d="M61.506 26.325L61.5057 26.3252C61.6448 26.5011 61.8212 26.6439 62.0222 26.7432C62.2232 26.8426 62.4437 26.896 62.6679 26.8997L62.7663 26.9013V26.9997V28.6663V28.7669L62.6657 28.7663C62.2055 28.7637 61.7508 28.6657 61.3303 28.4787C60.9097 28.2916 60.5325 28.0195 60.2224 27.6795L60.2176 27.6742L60.2178 27.6741C60.0788 27.4982 59.9024 27.3554 59.7013 27.256C59.5005 27.1568 59.28 27.1034 59.056 27.0997C58.8965 27.0984 58.7382 27.1274 58.5895 27.1851C58.588 27.1863 58.5864 27.1875 58.5847 27.1887C58.5798 27.1922 58.573 27.1966 58.5644 27.2006C58.3167 27.3254 58.0916 27.4908 57.8986 27.6901C57.8983 27.6904 57.8981 27.6906 57.8978 27.6909L57.826 27.6213C57.5221 27.9485 57.1544 28.2101 56.7456 28.3898C56.3368 28.5695 55.8955 28.6635 55.4489 28.6662L61.506 26.325ZM61.506 26.325L61.5004 26.319C60.988 25.7687 60.3097 25.4029 59.5708 25.276M61.506 26.325L59.5708 25.276M59.5708 25.276L62.712 16.4804L62.7121 16.4803C62.7537 16.3633 62.7717 16.2392 62.7648 16.1151C62.7579 15.9911 62.7264 15.8698 62.672 15.7581C62.6176 15.6464 62.5416 15.5467 62.4482 15.4648C62.3549 15.3829 62.2461 15.3204 62.1283 15.281L62.1283 15.281L60.1524 14.6223L58.5847 5.99975C58.5456 5.7847 58.4323 5.59016 58.2645 5.45009C58.0966 5.31001 57.885 5.23328 57.6664 5.23328H54.4331V2.83332C54.4331 2.58579 54.3348 2.34839 54.1597 2.17336C53.9847 1.99833 53.7473 1.9 53.4998 1.9H50.1665C49.919 1.9 49.6816 1.99833 49.5066 2.17336C49.3315 2.34839 49.2332 2.58579 49.2332 2.83332V5.23328H45.9999C45.7813 5.23328 45.5697 5.31001 45.4019 5.45009C45.234 5.59016 45.1207 5.78469 45.0816 5.99975C45.0816 5.99976 45.0816 5.99976 45.0816 5.99977L43.5139 14.6223L41.5381 15.281L41.538 15.281C41.4216 15.3199 41.3141 15.3814 41.2215 15.4618C41.1289 15.5423 41.0531 15.6402 40.9983 15.75C40.9436 15.8598 40.911 15.9793 40.9024 16.1017C40.8939 16.2241 40.9095 16.3469 40.9484 16.4633L40.9484 16.4633L40.9486 16.4639L40.9538 16.4791L40.9538 16.4791L40.9543 16.4804L44.0956 25.2765C43.3579 25.404 42.6808 25.7696 42.1691 26.319L42.1689 26.3188L42.164 26.325C42.0242 26.501 41.8472 26.6438 41.6457 26.7432C41.4441 26.8425 41.2231 26.896 40.9984 26.8996L40.9 26.9012V26.9996V28.6662V28.7668L41.0005 28.7662C41.461 28.7637 41.916 28.6659 42.3368 28.4789C42.7576 28.292 43.1352 28.0199 43.4457 27.6798L43.4459 27.68L43.4502 27.6745C43.5899 27.4984 43.7669 27.3555 43.9686 27.2561C44.1701 27.1567 44.3911 27.1033 44.6157 27.0996C44.7747 27.0983 44.9324 27.127 45.0807 27.184C45.082 27.185 45.0833 27.186 45.0847 27.187C45.0895 27.1904 45.0963 27.1947 45.1048 27.1986C45.3549 27.3236 45.5822 27.4899 45.7769 27.6906C45.7771 27.6909 45.7774 27.6911 45.7776 27.6914L45.8494 27.6218M59.5708 25.276L53.0792 27.6116C52.9955 27.5024 52.8979 27.4047 52.7887 27.3211C52.1039 26.797 51.1238 26.9272 50.5995 27.612C50.2985 27.9419 49.9325 28.2059 49.5244 28.3873C49.1163 28.5688 48.6751 28.6637 48.2285 28.6662C47.7817 28.6635 47.3401 28.5695 46.931 28.3899C46.5219 28.2103 46.1538 27.9489 45.8494 27.6218M45.8494 27.6218C45.6462 27.4121 45.4089 27.2384 45.1475 27.1082L45.8494 27.6218ZM41.5697 15.3758L43.6017 14.6984L45.18 6.01764C45.2149 5.82562 45.3161 5.65193 45.4659 5.52686C45.6158 5.40179 45.8047 5.33328 45.9999 5.33328H49.2332L41.5697 15.3758ZM41.5697 15.3758C41.4658 15.4106 41.3698 15.4654 41.2871 15.5373C41.2044 15.6092 41.1367 15.6966 41.0878 15.7946C41.0389 15.8927 41.0098 15.9994 41.0022 16.1087C40.9945 16.2179 41.0085 16.3276 41.0432 16.4315M41.5697 15.3758L41.0432 16.4315M41.0432 16.4315L41.0484 16.4467L44.1961 25.2606L41.0432 16.4315ZM41.1 28.6641C41.5124 28.6491 41.9185 28.5554 42.2962 28.3875C42.7044 28.2062 43.0706 27.9422 43.3718 27.6124C43.5207 27.4247 43.7094 27.2724 43.9243 27.1664C44.1392 27.0604 44.375 27.0034 44.6145 26.9996C44.7906 26.9981 44.9652 27.0307 45.129 27.0955L41.1 28.6641ZM41.1 28.6641V28.6662H41L40.9995 28.5662C40.9996 28.5662 40.9998 28.5662 41 28.5662V26.9996C41.2395 26.9957 41.4751 26.9388 41.6899 26.8329C41.9047 26.727 42.0934 26.5748 42.2423 26.3872C42.7431 25.8495 43.4069 25.4931 44.1297 25.3721L41.1 28.6641ZM49.3332 2.83332V5.23328H54.3331V2.83332C54.3331 2.61231 54.2453 2.40035 54.089 2.24407C53.9328 2.0878 53.7208 2 53.4998 2H50.1665C49.9455 2 49.7335 2.0878 49.5773 2.24407C49.421 2.40035 49.3332 2.61231 49.3332 2.83332ZM57.6664 5.33328H54.4331L60.0646 14.6984L58.4863 6.01764C58.4514 5.82562 58.3502 5.65193 58.2004 5.52686C58.0505 5.40179 57.8616 5.33328 57.6664 5.33328ZM51.0998 3.76664H52.5665V5.23328H51.0998V3.76664Z" fill="#363636" stroke="#CBAB96" stroke-width="0.2"/>
<path d="M61.506 26.325L61.5057 26.3252C61.6448 26.5011 61.8212 26.6439 62.0222 26.7432C62.2232 26.8426 62.4437 26.896 62.6679 26.8997L62.7663 26.9013V26.9997V28.6663V28.7669L62.6657 28.7663C62.2055 28.7637 61.7508 28.6657 61.3303 28.4787C60.9097 28.2916 60.5325 28.0195 60.2224 27.6795L60.2176 27.6742L60.2178 27.6741C60.0788 27.4982 59.9024 27.3554 59.7013 27.256C59.5005 27.1568 59.28 27.1034 59.056 27.0997C58.8965 27.0984 58.7382 27.1274 58.5895 27.1851C58.588 27.1863 58.5864 27.1875 58.5847 27.1887C58.5798 27.1922 58.573 27.1966 58.5644 27.2006C58.3167 27.3254 58.0916 27.4908 57.8986 27.6901C57.8983 27.6904 57.8981 27.6906 57.8978 27.6909L57.826 27.6213C57.5221 27.9485 57.1544 28.2101 56.7456 28.3898C56.3368 28.5695 55.8955 28.6635 55.4489 28.6662L61.506 26.325ZM61.506 26.325L61.5004 26.319C60.988 25.7687 60.3097 25.4029 59.5708 25.276M61.506 26.325L59.5708 25.276M59.5708 25.276L62.712 16.4804L62.7121 16.4803C62.7537 16.3633 62.7717 16.2392 62.7648 16.1151C62.7579 15.9911 62.7264 15.8698 62.672 15.7581C62.6176 15.6464 62.5416 15.5467 62.4482 15.4648C62.3549 15.3829 62.2461 15.3204 62.1283 15.281L62.1283 15.281L60.1524 14.6223L58.5847 5.99975C58.5456 5.7847 58.4323 5.59016 58.2645 5.45009C58.0966 5.31001 57.885 5.23328 57.6664 5.23328H54.4331V2.83332C54.4331 2.58579 54.3348 2.34839 54.1597 2.17336C53.9847 1.99833 53.7473 1.9 53.4998 1.9H50.1665C49.919 1.9 49.6816 1.99833 49.5066 2.17336C49.3315 2.34839 49.2332 2.58579 49.2332 2.83332V5.23328H45.9999C45.7813 5.23328 45.5697 5.31001 45.4019 5.45009C45.234 5.59016 45.1207 5.78469 45.0816 5.99975C45.0816 5.99976 45.0816 5.99976 45.0816 5.99977L43.5139 14.6223L41.5381 15.281L41.538 15.281C41.4216 15.3199 41.3141 15.3814 41.2215 15.4618C41.1289 15.5423 41.0531 15.6402 40.9983 15.75C40.9436 15.8598 40.911 15.9793 40.9024 16.1017C40.8939 16.2241 40.9095 16.3469 40.9484 16.4633L40.9484 16.4633L40.9486 16.4639L40.9538 16.4791L40.9538 16.4791L40.9543 16.4804L44.0956 25.2765C43.3579 25.404 42.6808 25.7696 42.1691 26.319L42.1689 26.3188L42.164 26.325C42.0242 26.501 41.8472 26.6438 41.6457 26.7432C41.4441 26.8425 41.2231 26.896 40.9984 26.8996L40.9 26.9012V26.9996V28.6662V28.7668L41.0005 28.7662C41.461 28.7637 41.916 28.6659 42.3368 28.4789C42.7576 28.292 43.1352 28.0199 43.4457 27.6798L43.4459 27.68L43.4502 27.6745C43.5899 27.4984 43.7669 27.3555 43.9686 27.2561C44.1701 27.1567 44.3911 27.1033 44.6157 27.0996C44.7747 27.0983 44.9324 27.127 45.0807 27.184C45.082 27.185 45.0833 27.186 45.0847 27.187C45.0895 27.1904 45.0963 27.1947 45.1048 27.1986C45.3549 27.3236 45.5822 27.4899 45.7769 27.6906C45.7771 27.6909 45.7774 27.6911 45.7776 27.6914L45.8494 27.6218M59.5708 25.276L53.0792 27.6116C52.9955 27.5024 52.8979 27.4047 52.7887 27.3211C52.1039 26.797 51.1238 26.9272 50.5995 27.612C50.2985 27.9419 49.9325 28.2059 49.5244 28.3873C49.1163 28.5688 48.6751 28.6637 48.2285 28.6662C47.7817 28.6635 47.3401 28.5695 46.931 28.3899C46.5219 28.2103 46.1538 27.9489 45.8494 27.6218M45.8494 27.6218C45.6462 27.4121 45.4089 27.2384 45.1475 27.1082L45.8494 27.6218ZM41.5697 15.3758L43.6017 14.6984L45.18 6.01764C45.2149 5.82562 45.3161 5.65193 45.4659 5.52686C45.6158 5.40179 45.8047 5.33328 45.9999 5.33328H49.2332L41.5697 15.3758ZM41.5697 15.3758C41.4658 15.4106 41.3698 15.4654 41.2871 15.5373C41.2044 15.6092 41.1367 15.6966 41.0878 15.7946C41.0389 15.8927 41.0098 15.9994 41.0022 16.1087C40.9945 16.2179 41.0085 16.3276 41.0432 16.4315M41.5697 15.3758L41.0432 16.4315M41.0432 16.4315L41.0484 16.4467L44.1961 25.2606L41.0432 16.4315ZM41.1 28.6641C41.5124 28.6491 41.9185 28.5554 42.2962 28.3875C42.7044 28.2062 43.0706 27.9422 43.3718 27.6124C43.5207 27.4247 43.7094 27.2724 43.9243 27.1664C44.1392 27.0604 44.375 27.0034 44.6145 26.9996C44.7906 26.9981 44.9652 27.0307 45.129 27.0955L41.1 28.6641ZM41.1 28.6641V28.6662H41L40.9995 28.5662C40.9996 28.5662 40.9998 28.5662 41 28.5662V26.9996C41.2395 26.9957 41.4751 26.9388 41.6899 26.8329C41.9047 26.727 42.0934 26.5748 42.2423 26.3872C42.7431 25.8495 43.4069 25.4931 44.1297 25.3721L41.1 28.6641ZM49.3332 2.83332V5.23328H54.3331V2.83332C54.3331 2.61231 54.2453 2.40035 54.089 2.24407C53.9328 2.0878 53.7208 2 53.4998 2H50.1665C49.9455 2 49.7335 2.0878 49.5773 2.24407C49.421 2.40035 49.3332 2.61231 49.3332 2.83332ZM57.6664 5.33328H54.4331L60.0646 14.6984L58.4863 6.01764C58.4514 5.82562 58.3502 5.65193 58.2004 5.52686C58.0505 5.40179 57.8616 5.33328 57.6664 5.33328ZM46.2143 25.6579L43.0328 16.7502L50.8998 14.1281V25.3686C50.3293 25.5577 49.8132 25.8835 49.3969 26.318L49.3965 26.3176L49.3898 26.3264C48.8978 26.968 47.9787 27.0893 47.337 26.5973C47.2352 26.5193 47.1441 26.4282 47.066 26.3264L47.0617 26.3207L47.0566 26.3157C46.801 26.0659 46.5185 25.8453 46.2143 25.6579ZM51.5379 11.9477L51.5379 11.9477L45.5335 13.9491L46.7788 7.09992H56.8875L58.1328 13.9491L52.1284 11.9477L52.1284 11.9477C51.9367 11.8839 51.7296 11.8839 51.5379 11.9477ZM52.7666 14.1281L60.6336 16.7502L57.4503 25.6635C57.1498 25.85 56.8705 26.0688 56.6175 26.3161L56.6124 26.3211L56.608 26.3269C56.1184 26.967 55.2024 27.089 54.5622 26.5993C54.4597 26.5209 54.3681 26.4293 54.2897 26.3269L54.2902 26.3265L54.2827 26.3186C53.8638 25.8795 53.3428 25.5515 52.7666 25.3636V14.1281ZM51.0998 3.76664H52.5665V5.23328H51.0998V3.76664Z" fill="#CBAB96" stroke="white" stroke-width="0.2"/>
<path d="M49 8.56699H48.9V8.66699V10.3336V10.4336H49H55.6666H55.7666V10.3336V8.66699V8.56699H55.6666H49Z" fill="#CBAB96" stroke="#CBAB96" stroke-width="0.2"/>
<path d="M2.66626 7H6.66626L8.66626 15H2.66626V7Z" fill="#363636"/>
<path d="M3.66626 15.5L32.6663 16L39.6663 21L38.6663 23.5L25.4163 23.25H21.1663L16.6663 29.5L15.1663 29L16.6663 23.5L12.1663 23L3.66626 15.5Z" fill="#363636"/>
<path d="M19.3731 8.05851L23.2949 14.3332L19.3731 8.05851ZM19.3731 8.05851C19.2982 7.93865 19.194 7.8398 19.0704 7.77126C18.9468 7.70271 18.8077 7.66671 18.6664 7.66664M19.3731 8.05851L18.6664 7.66664M23.3503 14.2332H29.7579H29.7581C32.4973 14.2401 35.1226 15.3304 37.0607 17.2661L37.0608 17.2662L39.6424 19.8483L23.3503 14.2332ZM23.3503 14.2332L19.4579 8.00551L19.4579 8.00549C19.374 7.87126 19.2573 7.76057 19.1189 7.6838C18.9804 7.60704 18.8247 7.56672 18.6664 7.56664H18.6664H16.1664H16.1664C16.0246 7.56671 15.8846 7.59908 15.7572 7.66131C15.6297 7.72353 15.5181 7.81397 15.4308 7.92576C15.3436 8.03756 15.2829 8.16776 15.2534 8.3065C15.224 8.44523 15.2265 8.58885 15.2609 8.72646L15.2609 8.7265L16.6376 14.2332H10.1944L7.89402 6.56532C7.89402 6.56532 7.89402 6.56532 7.89402 6.56532C7.83634 6.37302 7.71821 6.20445 7.55715 6.0846C7.39609 5.96475 7.20068 5.90002 6.99992 5.9H6.99992H2.83332C2.58579 5.9 2.34839 5.99833 2.17336 6.17336C1.99833 6.34839 1.9 6.58579 1.9 6.83332V15.1665V15.2665H1.9121C1.92061 15.354 1.94153 15.44 1.97439 15.5219C2.01985 15.6352 2.08727 15.7385 2.17275 15.8257L2.17345 15.8264L7.38147 21.0344C7.38152 21.0344 7.38157 21.0345 7.38161 21.0345C8.45472 22.1146 9.73141 22.9711 11.1378 23.5545C12.5442 24.1379 14.0524 24.4365 15.575 24.433M23.3503 14.2332L39.6425 19.8483C39.8929 20.0983 40.0914 20.3952 40.2267 20.7221C40.3619 21.0491 40.4312 21.3995 40.4306 21.7534C40.4278 23.2361 39.2237 24.4357 37.741 24.433M15.575 24.433H15.5748V24.333L15.575 24.433ZM15.575 24.433H15.6479M15.6479 24.433L13.6398 28.9542L13.7312 28.9948M15.6479 24.433H15.7573M15.6479 24.433L15.6923 24.333L15.7573 24.433M13.7312 28.9948L13.6398 28.9542C13.587 29.0732 13.5596 29.2018 13.5594 29.3319C13.5593 29.462 13.5863 29.5907 13.6389 29.7098C13.6914 29.8288 13.7682 29.9356 13.8644 30.0232C13.9606 30.1108 14.0741 30.1773 14.1975 30.2184L16.6958 31.0517L16.6959 31.0518C16.8867 31.1153 17.093 31.1155 17.284 31.0524C17.475 30.9892 17.6405 30.8661 17.7558 30.7013L17.7558 30.7013L22.1409 24.433M13.7312 28.9948L15.7573 24.433M13.7312 28.9948C13.684 29.101 13.6596 29.2159 13.6594 29.332C13.6593 29.4482 13.6835 29.5631 13.7304 29.6694C13.7772 29.7757 13.8459 29.871 13.9318 29.9492C14.0177 30.0274 14.119 30.0868 14.2292 30.1236L16.7275 30.9569C16.8979 31.0136 17.0821 31.0138 17.2526 30.9574C17.4231 30.9011 17.5709 30.7911 17.6739 30.644L15.7573 24.433M22.1409 24.433H37.741M22.1409 24.433H22.0888V24.333L22.1708 24.3903L22.1409 24.433ZM37.741 24.433H37.7412V24.333L37.741 24.433ZM18.6664 7.66664H16.1664M18.6664 7.66664H16.1664M16.1664 7.66664C16.0398 7.6667 15.9148 7.69561 15.801 7.75117C15.6872 7.80673 15.5876 7.88748 15.5097 7.9873C15.4317 8.08712 15.3776 8.20338 15.3513 8.32726C15.325 8.45114 15.3272 8.57938 15.3579 8.70225L16.1664 7.66664ZM38.5041 22.0558L38.5031 22.0582C38.4428 22.21 38.3378 22.3399 38.2019 22.4307C38.0661 22.5214 37.9059 22.5687 37.7426 22.5664H37.7412H23.4467L23.5854 22.3681L23.5855 22.3681C23.6832 22.2282 23.7408 22.0641 23.7518 21.8938C23.7629 21.7235 23.7271 21.5534 23.6483 21.4021C23.5694 21.2507 23.4506 21.1238 23.3047 21.0353C23.1588 20.9467 22.9914 20.8998 22.8207 20.8997H22.8207H17.824C17.6434 20.8997 17.4667 20.9521 17.3153 21.0506C17.1638 21.149 17.0442 21.2893 16.971 21.4544C16.971 21.4544 16.971 21.4544 16.971 21.4544L16.477 22.5664H15.5748H15.5746C14.2973 22.5692 13.0322 22.3186 11.8525 21.8292C10.6728 21.3398 9.60183 20.6212 8.70166 19.7151L8.70143 19.7149L5.08637 16.0998H5.12877H5.18524H5.24162H5.29791H5.35409H5.41019H5.46619H5.5221H5.57791H5.63363H5.68926H5.74479H5.80024H5.85559H5.91085H5.96602H6.02111H6.0761H6.131H6.18581H6.24054H6.29517H6.34972H6.40418H6.45855H6.51284H6.56704H6.62116H6.67518H6.72913H6.78299H6.83676H6.89045H6.94406H6.99758H7.05102H7.10438H7.15765H7.21085H7.26396H7.31699H7.36994H7.42281H7.4756H7.52831H7.58095H7.6335H7.68597H7.73837H7.79069H7.84293H7.8951H7.94719H7.9992H8.05114H8.103H8.15478H8.2065H8.25813H8.3097H8.36119H8.41261H8.46395H8.51523H8.56643H8.61756H8.66862H8.71961H8.77052H8.82137H8.87215H8.92286H8.9735H9.02407H9.07458H9.12501H9.17538H9.22568H9.27592H9.32609H9.37619H9.42623H9.47621H9.52612H9.57596H9.62574H9.67546H9.72511H9.7747H9.82423H9.8737H9.92311H9.97245H10.0217H10.071H10.1201H10.1692H10.2183H10.2673H10.3162H10.3651H10.4139H10.4626H10.5113H10.56H10.6085H10.6571H10.7056H10.754H10.8023H10.8506H10.8989H10.9471H10.9952H11.0433H11.0914H11.1394H11.1873H11.2352H11.2831H11.3308H11.3786H11.4263H11.4739H11.5215H11.569H11.6165H11.664H11.7114H11.7587H11.806H11.8533H11.9005H11.9477H11.9948H12.0419H12.0889H12.1359H12.1828H12.2297H12.2766H12.3234H12.3702H12.4169H12.4636H12.5103H12.5569H12.6034H12.65H12.6965H12.7429H12.7893H12.8357H12.882H12.9283H12.9746H13.0208H13.067H13.1132H13.1593H13.2054H13.2514H13.2974H13.3434H13.3894H13.4353H13.4812H13.527H13.5728H13.6186H13.6644H13.7101H13.7558H13.8014H13.8471H13.8927H13.9383H13.9838H14.0293H14.0748H14.1203H14.1657H14.2111H14.2565H14.3018H14.3472H14.3925H14.4377H14.483H14.5282H14.5734H14.6186H14.6638H14.7089H14.754H14.7991H14.8442H14.8893H14.9343H14.9793H15.0243H15.0693H15.1142H15.1591H15.2041H15.249H15.2938H15.3387H15.3835H15.4284H15.4732H15.518H15.5628H15.6075H15.6523H15.697H15.7417H15.7865H15.8312H15.8758H15.9205H15.9652H16.0098H16.0545H16.0991H16.1437H16.1883H16.2329H16.2775H16.3221H16.3667H16.4112H16.4558H16.5003H16.5449H16.5894H16.6339H16.6785H16.723H16.7675H16.812H16.8565H16.901H16.9455H16.99H17.0345H17.079H17.1235H17.168H17.2124H17.2569H17.3014H17.3459H17.3904H17.4349H17.4793H17.5238H17.5683H17.6128H17.6573H17.7018H17.7463H17.7908H17.8353H17.8798H17.9244H17.9689H18.0134H18.0579H18.1025H18.147H18.1916H18.2362H18.2807H18.3253H18.3699H18.4145H18.4591H18.5037H18.5484H18.593H18.6376H18.6823H18.727H18.7717H18.8164H18.8611H18.9058H18.9505H18.9953H19.0401H19.0848H19.1296H19.1744H19.2193H19.2641H19.309H19.3539H19.3988H19.4437H19.4886H19.5336H19.5785H19.6235H19.6685H19.7136H19.7586H19.8037H19.8488H19.8939H19.939H19.9842H20.0294H20.0746H20.1198H20.1651H20.2104H20.2557H20.301H20.3463H20.3917H20.4371H20.4826H20.528H20.5735H20.619H20.6646H20.7101H20.7557H20.8014H20.847H20.8927H20.9384H20.9842H21.03H21.0758H21.1217H21.1675H21.2134H21.2594H21.3054H21.3514H21.3974H21.4435H21.4896H21.5358H21.582H21.6282H21.6745H21.7208H21.7671H21.8135H21.8599H21.9064H21.9528H21.9994H22.0459H22.0926H22.1392H22.1859H22.2326H22.2794H22.3262H22.3731H22.42H22.4669H22.5139H22.561H22.608H22.6552H22.7023H22.7495H22.7968H22.8441H22.8914H22.9388H22.9863H23.0338H23.0813H23.1289H23.1766H23.2242H23.272H23.3198H23.3676H23.4155H23.4634H23.5114H23.5595H23.6076H23.6557H23.7039H23.7522H23.8005H23.8488H23.8973H23.9457H23.9943H24.0429H24.0915H24.1402H24.1889H24.2378H24.2866H24.3356H24.3845H24.4336H24.4827H24.5319H24.5811H24.6304H24.6797H24.7291H24.7786H24.8281H24.8777H24.9274H24.9771H25.0269H25.0767H25.1266H25.1766H25.2266H25.2767H25.3269H25.3771H25.4274H25.4778H25.5282H25.5787H25.6293H25.68H25.7307H25.7814H25.8323H25.8832H25.9342H25.9853H26.0364H26.0876H26.1389H26.1902H26.2416H26.2931H26.3447H26.3963H26.448H26.4998H26.5517H26.6036H26.6556H26.7077H26.7599H26.8121H26.8644H26.9168H26.9693H27.0219H27.0745H27.1272H27.18H27.2329H27.2858H27.3389H27.392H27.4452H27.4984H27.5518H27.6052H27.6588H27.7124H27.7661H27.8198H27.8737H27.9276H27.9817H28.0358H28.09H28.1443H28.1986H28.2531H28.3076H28.3623H28.417H28.4718H28.5267H28.5817H28.6368H28.692H28.7472H28.8026H28.858H28.9136H28.9692H29.0249H29.0807H29.1366H29.1926H29.2487H29.3049H29.3612H29.4176H29.474H29.5306H29.5873H29.644H29.7009L29.7574 16.0998C29.7575 16.0998 29.7576 16.0998 29.7577 16.0998C31.4488 16.1072 33.0967 16.6191 34.4919 17.5665H28.6662H28.5662V17.6665V19.3331V19.4331H28.6662H36.5873L38.3247 21.1706L38.3259 21.1718C38.4417 21.2837 38.5208 21.4282 38.5526 21.586C38.5844 21.7439 38.5675 21.9077 38.5041 22.0558ZM17.3618 9.43328H18.1491L21.149 14.2332H18.5619L17.3618 9.43328ZM3.76664 7.76664H6.30542L8.24539 14.2332H3.76664V7.76664ZM21.0288 22.7664L16.6257 29.0606L15.7629 28.7728L18.4307 22.7664H21.0288Z" fill="#CBAB96" stroke="white" stroke-width="0.2"/>
<path d="M13.7656 17.332V17.232H13.6656H11.9998H11.8998V17.332V18.9987V19.0987H11.9998H13.6656H13.7656V18.9987V17.332ZM17.0988 17.332V17.232H16.9988H15.333H15.233V17.332V18.9987V19.0987H15.333H16.9988H17.0988V18.9987V17.332ZM20.4321 17.332V17.232H20.3321H18.6663H18.5663V17.332V18.9987V19.0987H18.6663H20.3321H20.4321V18.9987V17.332ZM23.7654 17.332V17.232H23.6654H21.9996H21.8996V17.332V18.9987V19.0987H21.9996H23.6654H23.7654V18.9987V17.332Z" fill="#363636" stroke="white" stroke-width="0.2"/>
<path d="M25.333 17.332H26.9988V18.9987H25.333V17.332Z" fill="#363636"/>
<g clip-path="url(#clip1_7897_158347)">
<path d="M115.564 29.141L112.204 25.6305C113.562 25.5818 114.651 24.463 114.651 23.0938V8.02543C114.65 7.20273 114.365 6.40563 113.844 5.76932C113.322 5.13506 112.592 4.69799 111.788 4.53889C109.982 4.18091 108.145 4.00042 106.303 4L103.621 4C101.804 4.00037 99.9927 4.17972 98.2117 4.53544C96.556 4.86668 95.3543 6.33279 95.3543 8.02137V23.0938C95.3543 24.4745 96.4623 25.6006 97.8358 25.6313L94.4376 29.1389C94.3682 29.2105 94.3214 29.301 94.3031 29.399C94.2847 29.4971 94.2957 29.5984 94.3346 29.6903C94.3735 29.7821 94.4386 29.8605 94.5218 29.9156C94.605 29.9707 94.7025 30 94.8023 30H98.4332C98.5134 30 98.5925 29.981 98.664 29.9445C98.7355 29.908 98.7973 29.8551 98.8444 29.7901L100.385 27.6641H109.666L111.206 29.7902C111.253 29.8551 111.315 29.908 111.387 29.9445C111.458 29.981 111.537 30 111.617 30H115.198C115.297 30 115.394 29.9708 115.477 29.9159C115.56 29.8611 115.625 29.7831 115.665 29.6916C115.704 29.6001 115.715 29.4992 115.697 29.4013C115.679 29.3034 115.633 29.2129 115.564 29.141ZM101.121 26.6484L101.857 25.6328H108.194L108.93 26.6484H101.121Z" fill="#363636"/>
<path d="M109.065 5.93125C108.73 5.93125 108.457 6.20352 108.457 6.53906C108.457 6.8746 108.73 7.14688 109.065 7.14688C109.401 7.14688 109.673 6.8746 109.673 6.53906C109.673 6.20352 109.401 5.93125 109.065 5.93125ZM100.94 5.93125C100.605 5.93125 100.332 6.20352 100.332 6.53906C100.332 6.8746 100.605 7.14688 100.94 7.14688C101.276 7.14688 101.548 6.8746 101.548 6.53906C101.548 6.20352 101.276 5.93125 100.94 5.93125Z" fill="#CBAB96" stroke="#CBAB96" stroke-width="0.2"/>
<path d="M96.4699 8.02137V23.0938C96.4699 23.8785 97.1086 24.5172 97.8933 24.5172H112.112C112.897 24.5172 113.535 23.8785 113.535 23.0938V8.02547C113.535 7.46099 113.339 6.91406 112.981 6.47743L96.4699 8.02137ZM96.4699 8.02137C96.4699 6.86282 97.2946 5.85665 98.4304 5.62936M96.4699 8.02137L98.4304 5.62936M98.4304 5.62936C100.139 5.2881 101.878 5.11602 103.62 5.11563C103.62 5.11563 103.62 5.11563 103.62 5.11563H106.303C108.068 5.11563 109.84 5.28972 111.571 5.63315C112.124 5.74333 112.623 6.04157 112.981 6.47727L98.4304 5.62936ZM112.422 25.714C113.732 25.5599 114.751 24.4441 114.751 23.0938V8.02543V8.02534C114.75 7.17956 114.457 6.3601 113.921 5.70593L113.921 5.70583C113.385 5.05373 112.634 4.6044 111.807 4.4408C109.995 4.08155 108.151 3.90042 106.303 3.9H106.303H103.621H103.62C101.798 3.90037 99.9795 4.08037 98.1921 4.43737L98.1921 4.43738C96.4896 4.77798 95.2543 6.28513 95.2543 8.02137V23.0938C95.2543 24.4544 96.2894 25.577 97.6134 25.7172L94.3658 29.0693C94.3658 29.0693 94.3658 29.0693 94.3658 29.0693C94.2827 29.155 94.2267 29.2633 94.2048 29.3807C94.1828 29.4981 94.196 29.6193 94.2426 29.7293C94.2891 29.8392 94.367 29.933 94.4666 29.9989C94.5661 30.0649 94.6829 30.1 94.8023 30.1H98.4332C98.5292 30.1 98.6239 30.0772 98.7095 30.0336C98.795 29.9899 98.869 29.9266 98.9254 29.8488L100.436 27.7641H109.615L111.125 29.8488L111.125 29.8489C111.182 29.9266 111.256 29.9899 111.341 30.0336C111.427 30.0772 111.521 30.1 111.617 30.1H115.198C115.317 30.1 115.433 30.065 115.532 29.9994C115.632 29.9338 115.71 29.8404 115.757 29.7309C115.803 29.6214 115.817 29.5005 115.796 29.3834C115.774 29.2662 115.719 29.1579 115.637 29.0719L112.422 25.714ZM100.406 25.7328L98.123 28.8844H96.2375L99.2908 25.7328H100.406ZM108.143 25.7328L108.734 26.5484H101.317L101.908 25.7328H108.143ZM113.774 28.8844H111.928L109.644 25.7328H110.758L113.774 28.8844Z" fill="#CBAB96" stroke="#CBAB96" stroke-width="0.2"/>
<path d="M112.112 7.9625H97.8933C97.5577 7.9625 97.2855 8.23467 97.2855 8.57031V17C97.2855 17.3356 97.5577 17.6078 97.8933 17.6078H112.112C112.448 17.6078 112.72 17.3356 112.72 17V8.57031C112.72 8.23467 112.448 7.9625 112.112 7.9625ZM104.395 16.3922H98.5011V9.17812H104.395V16.3922ZM111.504 16.3922H105.61V9.17812H111.504V16.3922ZM107.034 5.93125H102.971C102.636 5.93125 102.364 6.20342 102.364 6.53906C102.364 6.87471 102.636 7.14688 102.971 7.14688H107.034C107.37 7.14688 107.642 6.87471 107.642 6.53906C107.642 6.20342 107.37 5.93125 107.034 5.93125ZM110.589 18.9312C109.413 18.9312 108.457 19.8872 108.457 21.0625C108.457 22.2378 109.413 23.1938 110.589 23.1938C111.764 23.1938 112.72 22.2378 112.72 21.0625C112.72 19.8872 111.764 18.9312 110.589 18.9312ZM110.589 21.9781C110.084 21.9781 109.673 21.5673 109.673 21.0625C109.673 20.5577 110.084 20.1469 110.589 20.1469C111.093 20.1469 111.504 20.5577 111.504 21.0625C111.504 21.5673 111.093 21.9781 110.589 21.9781ZM99.4167 18.9312C98.2415 18.9312 97.2855 19.8872 97.2855 21.0625C97.2855 22.2378 98.2415 23.1938 99.4167 23.1938C100.592 23.1938 101.548 22.2378 101.548 21.0625C101.548 19.8872 100.592 18.9312 99.4167 18.9312ZM99.4167 21.9781C98.912 21.9781 98.5011 21.5673 98.5011 21.0625C98.5011 20.5577 98.912 20.1469 99.4167 20.1469C99.9215 20.1469 100.332 20.5577 100.332 21.0625C100.332 21.5673 99.9215 21.9781 99.4167 21.9781ZM107.034 19.4391H102.971C102.636 19.4391 102.364 19.7112 102.364 20.0469C102.364 20.3825 102.636 20.6547 102.971 20.6547H107.034C107.37 20.6547 107.642 20.3825 107.642 20.0469C107.642 19.7112 107.37 19.4391 107.034 19.4391ZM107.034 21.4703H102.971C102.636 21.4703 102.364 21.7425 102.364 22.0781C102.364 22.4138 102.636 22.6859 102.971 22.6859H107.034C107.37 22.6859 107.642 22.4138 107.642 22.0781C107.642 21.7425 107.37 21.4703 107.034 21.4703Z" fill="#CBAB96" stroke="#CBAB96" stroke-width="0.2"/>
</g>
</g>
<defs>
<clipPath id="clip0_7897_158347">
<rect width="120" height="31" fill="white"/>
</clipPath>
<clipPath id="clip1_7897_158347">
<rect width="26" height="26" fill="white" transform="translate(92 4)"/>
</clipPath>
</defs>
</svg>
