
<svg width="40" height="40" viewBox="0 0 40 40" fill="none" xmlns="http://www.w3.org/2000/svg">
<g clip-path="url(#clip0_8244_252292)">
<path fill-rule="evenodd" clip-rule="evenodd" d="M22.4527 11.8926C22.4527 13.8042 21.8984 15.5892 20.943 17.096C20.5971 17.3677 19.917 17.5251 19.5198 17.5334C19.5985 17.2368 19.6732 16.9984 19.74 16.781C19.9052 16.2343 20.027 15.8393 20.0388 15.2159C20.0624 14.0059 19.972 13.3675 19.7125 12.9385C19.3587 12.3626 18.8083 12.3202 18.4033 12.2893C18.1084 12.2667 17.8253 12.2459 17.4951 12.066C16.7009 11.6368 16.6027 11.3943 16.5948 11.3685C16.579 11.3177 16.6655 11.1484 16.7284 11.0244C16.8621 10.751 17.0784 10.322 16.9683 9.8168C16.9879 9.79265 17.0116 9.76937 17.0312 9.74844C17.8765 9.97851 19.1227 10.0469 19.563 9.92602C20.2668 9.73352 20.6049 8.48851 20.5184 7.74937C20.428 6.95937 19.8972 6.45016 19.1384 6.42016C19.0127 6.41602 18.8514 6.43508 18.5527 6.47273C18.3796 6.49516 18.0455 6.53766 17.8056 6.5518C17.7506 6.22586 17.7466 5.77937 17.9118 5.6293C18.2106 5.35437 18.8042 5.15672 19.2367 5.01266C19.3274 4.98267 19.4179 4.95181 19.508 4.92008C21.3245 6.6918 22.4527 9.16266 22.4527 11.8926ZM18.309 3.9225C16.7245 2.80172 14.7863 2.14258 12.7027 2.14258C11.2087 2.14258 9.79336 2.48 8.52742 3.08266C8.85375 3.1668 9.09352 3.1168 10.0489 2.91586C11.3895 2.63344 11.9045 2.94336 12.396 3.34508C12.6084 3.51922 12.7616 3.645 13.1666 3.70258C13.658 3.77242 14.1219 3.86672 14.4325 4.24422C15.0891 5.05 14.7116 7.11664 13.6266 7.40828C12.6987 7.65758 10.9413 7.74836 10.7055 8.95078C10.5167 9.91414 9.72258 10.1992 9.27047 10.35C9.51812 10.7883 9.63219 11.1141 9.70289 11.335C9.82086 11.3275 9.97422 11.3151 10.1315 11.3024L10.3202 11.2875C10.8548 11.2441 13.4968 12.0058 14.5505 13.0574C14.9554 13.459 15.1441 13.8931 15.1087 14.3457C14.9987 15.7931 14.3224 16.3616 13.7799 16.819C13.375 17.1623 13.1037 17.3891 13.029 18.0098C12.8324 19.5823 12.1837 20.574 11.3305 20.5964C11.3187 20.5964 11.307 20.5973 11.2991 20.5973C9.97812 20.5973 9.58102 18.3789 9.45125 17.6455C9.17211 16.088 8.82617 16.008 8.45656 15.923C7.53266 15.708 7.02945 15.2438 7.00977 13.4072C7.00586 13.1214 6.96648 12.8522 6.79352 12.6189C6.61266 12.3764 6.365 12.1906 6.10547 12.0396C5.44891 11.6597 4.23805 10.9563 3.29445 9.32383C3.07039 10.143 2.95242 11.0039 2.95242 11.8922C2.95242 17.268 7.32422 21.6421 12.7025 21.6421C15.3484 21.6421 17.7505 20.5814 19.5119 18.8621C19.162 18.8621 18.8435 18.8012 18.6037 18.6621C18.2027 18.4296 18.0257 18.0064 18.1358 17.5562C18.2616 17.0555 18.3717 16.6872 18.4621 16.3905C18.6154 15.898 18.698 15.6263 18.7059 15.1871C18.7295 14.0547 18.6233 13.733 18.584 13.6497C18.5211 13.6355 18.3953 13.6255 18.3009 13.6188C17.9392 13.5913 17.4438 13.553 16.858 13.2389C15.9656 12.7556 15.4938 12.3023 15.3248 11.7689C15.1439 11.2039 15.3798 10.7365 15.5331 10.4273C15.6354 10.223 15.6786 10.1248 15.6589 10.0822C15.4466 9.62562 15.7769 9.14969 15.993 8.90641C16.3823 8.46641 16.8462 8.29133 17.2629 8.42633C17.833 8.61219 18.6861 8.66227 19.0635 8.65055C19.1815 8.38961 19.2562 7.89562 19.1579 7.76305C19.15 7.75969 19.1264 7.75477 19.095 7.75211C19.036 7.75469 18.8552 7.77812 18.7215 7.79461C17.7308 7.92211 16.9484 8.02211 16.6653 7.39211C16.457 6.93219 16.1581 5.42547 17.0112 4.64461C17.3772 4.31164 17.8648 4.08914 18.309 3.9225ZM7.01375 3.97922C7.24052 4.05245 7.46597 4.12971 7.69 4.21094C8.6532 4.55586 8.82227 4.53672 10.3241 4.22C11.1457 4.0468 11.2834 4.15672 11.5507 4.3768C11.8259 4.60258 12.2034 4.91172 12.9778 5.02258C13.198 5.05422 13.3159 5.08094 13.3788 5.1C13.4221 5.115 13.3198 6.11008 13.2491 6.12922C13.084 6.1718 12.903 6.20922 12.7065 6.25016C11.3698 6.52672 9.68711 7.20187 9.39617 8.69594C9.36078 8.88101 9.2625 8.94766 8.8182 9.09508C8.48797 9.20422 8.03586 9.3543 7.85891 9.82008C7.68586 10.2917 7.94539 10.7268 8.03187 10.8693C8.29922 11.3209 8.38961 11.6085 8.45648 11.8184C8.75133 12.7526 9.2782 12.7093 10.2374 12.6317L10.3947 12.6192C10.8625 12.6584 13.0287 13.33 13.6696 14.0642C13.7639 14.1725 13.7797 14.2343 13.7797 14.245C13.7129 15.1341 13.3787 15.4134 12.9227 15.8001C12.443 16.2034 11.8455 16.7067 11.7039 17.8467C11.6213 18.5316 11.4366 18.9634 11.3068 19.1651C11.177 18.9692 10.957 18.495 10.7642 17.4117C10.3632 15.1751 9.55336 14.8084 8.75914 14.6242C8.56258 14.5784 8.52719 14.5643 8.51141 14.5401C8.47211 14.4851 8.35023 14.2409 8.34234 13.3926C8.33844 12.9777 8.27156 12.5559 8.08289 12.1826C7.80375 11.626 7.30445 11.1934 6.77375 10.8867C6.0543 10.4693 4.73727 9.70586 3.95094 7.5918C4.66273 6.1518 5.72031 4.91094 7.01375 3.97922ZM9.39234 37.8576C7.2418 37.8576 5.49234 36.1084 5.49234 33.9576C5.49234 31.8076 7.24188 30.0584 9.39234 30.0584C11.5428 30.0584 13.2924 31.8076 13.2924 33.9576C13.2924 36.1084 11.5429 37.8576 9.39234 37.8576ZM25.4014 33.2916V8.70758H23.3177C23.628 9.74077 23.7856 10.8138 23.7855 11.8926C23.7855 18.0042 18.8122 22.9759 12.7027 22.9759C6.58922 22.9759 1.61586 18.0042 1.61586 11.8926C1.6158 10.8138 1.7734 9.74078 2.08367 8.70758H0V33.2917H4.20281C4.52914 30.7202 6.73078 28.7251 9.39234 28.7251C12.05 28.7251 14.2516 30.7202 14.5819 33.2917H25.4014V33.2916ZM36.6062 14.8659L39.8142 22.4108H30.9448C30.6223 22.4108 30.3589 22.1492 30.3589 21.8275V14.0559H35.2772C35.8866 14.0559 36.3977 14.3668 36.6062 14.8659ZM33.3666 37.8576C31.216 37.8576 29.4666 36.1084 29.4666 33.9576C29.4666 31.8076 31.2161 30.0584 33.3666 30.0584C35.5171 30.0584 37.2666 31.8076 37.2666 33.9576C37.2666 36.1084 35.5171 37.8576 33.3666 37.8576ZM38.5562 33.2916H40.003V23.7441H30.9448C29.8872 23.7441 29.0262 22.8843 29.0262 21.8275V14.0559H26.7341V33.2916H28.177C28.5073 30.7201 30.7089 28.725 33.3666 28.725C36.0282 28.725 38.2298 30.7201 38.5562 33.2916ZM33.3666 31.2751C31.8883 31.2751 30.6853 32.4783 30.6853 33.9583C30.6853 35.4375 31.8884 36.6408 33.3666 36.6408C34.8488 36.6408 36.0518 35.4376 36.0518 33.9583C36.0518 32.4784 34.8488 31.2751 33.3666 31.2751ZM33.3666 35.3075C34.1096 35.3075 34.719 34.7026 34.719 33.9584C34.719 33.2134 34.1096 32.6084 33.3666 32.6084C32.6235 32.6084 32.018 33.2134 32.018 33.9584C32.0181 34.7026 32.6235 35.3075 33.3666 35.3075ZM9.39234 31.2751C7.91016 31.2751 6.70711 32.4783 6.70711 33.9583C6.70711 35.4375 7.91016 36.6408 9.39234 36.6408C10.8706 36.6408 12.0736 35.4376 12.0736 33.9583C12.0736 32.4784 10.8706 31.2751 9.39234 31.2751ZM9.39234 35.3075C10.1354 35.3075 10.7409 34.7026 10.7409 33.9584C10.7409 33.2134 10.1354 32.6084 9.39234 32.6084C8.64539 32.6084 8.03992 33.2134 8.03992 33.9584C8.03992 34.7026 8.64539 35.3075 9.39234 35.3075Z" fill="#141414"/>
</g>
<defs>
<clipPath id="clip0_8244_252292">
<rect width="40" height="40" fill="white"/>
</clipPath>
</defs>
</svg>
    