
<svg width="40" height="40" viewBox="0 0 40 40" fill="none" xmlns="http://www.w3.org/2000/svg">
<path d="M34.1665 3H22.3903C21.6113 3 20.5225 3.45132 19.972 4.00133L3.82681 20.1466C2.7244 21.2478 2.7244 23.0533 3.82681 24.1531L15.8483 36.1743C16.9482 37.2755 18.7518 37.2755 19.8534 36.173L35.9987 20.0302C36.5486 19.4803 37 18.3897 37 17.6123V5.83348C37 4.27542 35.7245 3 34.1665 3ZM28.4995 14.3335C26.9347 14.3335 25.6661 13.0636 25.6661 11.5C25.6661 9.93391 26.9347 8.66655 28.4995 8.66655C30.0644 8.66655 31.3334 9.93391 31.3334 11.5C31.3335 13.0636 30.0644 14.3335 28.4995 14.3335Z" fill="#141414"/>
</svg>
