 <svg
            width="105"
            height="76"
            viewBox="0 0 105 76"
            fill="none"
            xmlns="http://www.w3.org/2000/svg"
          >
            <g clip-path="url(#clip0_8244_252296)">
              <path
                d="M68.25 9.37695V38.752H64.5V15.627H39.5V38.752H35.125V9.37695L52 1.25195L68.25 9.37695Z"
                fill="black"
              />
              <path d="M42 9.37695H62V13.127H42V9.37695Z" fill="white" />
              <path d="M39.5 15.627H64.5V18.127H39.5V15.627Z" fill="white" />
              <path d="M53.25 23.752H62V32.502H53.25V23.752Z" fill="black" />
              <path d="M57.625 23.752H62V32.502H57.625V23.752Z" fill="black" />
              <path
                d="M56.375 23.752H58.875V26.877H56.375V23.752Z"
                fill="#C1C1C1"
              />
              <path
                d="M57.625 23.752H58.875V26.877H57.625V23.752Z"
                fill="#2D2D2D"
              />
              <path d="M37 30.002H45.75V38.752H37V30.002Z" fill="#3E3E3E" />
              <path
                d="M41.375 30.002H45.75V38.752H41.375V30.002Z"
                fill="#5B5B5B"
              />
              <path
                d="M40.125 30.002H42.625V33.127H40.125V30.002Z"
                fill="#D0D0D0"
              />
              <path
                d="M41.375 30.002H42.625V33.127H41.375V30.002Z"
                fill="#A5A5A5"
              />
              <path
                d="M63.875 32.502V27.502H68.25L70.125 32.502V36.877H51.375V32.502H62H63.875Z"
                fill="black"
              />
              <path
                d="M68.9563 29.377H65.75V31.877H69.8938L68.9563 29.377Z"
                fill="black"
              />
              <path
                d="M65.75 33.127H67V33.752H65.75V33.127ZM52.625 33.752H63.875V34.377H52.625V33.752Z"
                fill="white"
              />
              <path
                d="M67 38.752C68.0355 38.752 68.875 37.9125 68.875 36.877C68.875 35.8414 68.0355 35.002 67 35.002C65.9645 35.002 65.125 35.8414 65.125 36.877C65.125 37.9125 65.9645 38.752 67 38.752Z"
                fill="black"
              />
              <path
                d="M55.125 38.752C56.1605 38.752 57 37.9125 57 36.877C57 35.8414 56.1605 35.002 55.125 35.002C54.0895 35.002 53.25 35.8414 53.25 36.877C53.25 37.9125 54.0895 38.752 55.125 38.752Z"
                fill="black"
              />
              <path
                d="M55.125 37.8145C55.6428 37.8145 56.0625 37.3947 56.0625 36.877C56.0625 36.3592 55.6428 35.9395 55.125 35.9395C54.6072 35.9395 54.1875 36.3592 54.1875 36.877C54.1875 37.3947 54.6072 37.8145 55.125 37.8145Z"
                fill="#E6E7E8"
              />
              <path
                d="M67 37.8145C67.5178 37.8145 67.9375 37.3947 67.9375 36.877C67.9375 36.3592 67.5178 35.9395 67 35.9395C66.4822 35.9395 66.0625 36.3592 66.0625 36.877C66.0625 37.3947 66.4822 37.8145 67 37.8145Z"
                fill="#E6E7E8"
              />
              <path
                d="M40.125 30.627H38.875V15.002H65.125V26.252H63.875V16.252H40.125V30.627Z"
                fill="black"
              />
              <path
                d="M65.125 21.252H38.875V15.002H65.125V21.252ZM40.125 20.002H63.875V16.252H40.125V20.002Z"
                fill="black"
              />
              <path
                d="M38.875 17.502H65.125V18.752H38.875V17.502ZM62.625 13.752H41.375V8.75195H62.625V13.752ZM42.625 12.502H61.375V10.002H42.625V12.502ZM32.625 38.127H71.375V39.377H32.625V38.127Z"
                fill="black"
              />
              <path
                d="M46.375 39.377H36.375V29.377H46.375V39.377ZM37.625 38.127H45.125V30.627H37.625V38.127Z"
                fill="black"
              />
              <path
                d="M67 39.377C66.5055 39.377 66.0222 39.2303 65.6111 38.9556C65.2 38.6809 64.8795 38.2905 64.6903 37.8337C64.5011 37.3768 64.4516 36.8742 64.548 36.3892C64.6445 35.9043 64.8826 35.4588 65.2322 35.1092C65.5819 34.7596 66.0273 34.5215 66.5123 34.425C66.9972 34.3285 67.4999 34.378 67.9567 34.5673C68.4135 34.7565 68.804 35.0769 69.0787 35.488C69.3534 35.8991 69.5 36.3825 69.5 36.877C69.5 37.54 69.2366 38.1759 68.7678 38.6447C68.2989 39.1136 67.663 39.377 67 39.377ZM67 35.627C66.7528 35.627 66.5111 35.7003 66.3055 35.8376C66.1 35.975 65.9398 36.1702 65.8452 36.3986C65.7505 36.627 65.7258 36.8783 65.774 37.1208C65.8222 37.3633 65.9413 37.586 66.1161 37.7608C66.2909 37.9357 66.5137 38.0547 66.7561 38.1029C66.9986 38.1512 67.2499 38.1264 67.4784 38.0318C67.7068 37.9372 67.902 37.777 68.0393 37.5714C68.1767 37.3659 68.25 37.1242 68.25 36.877C68.25 36.5454 68.1183 36.2275 67.8839 35.9931C67.6495 35.7586 67.3315 35.627 67 35.627ZM55.125 39.377C54.6305 39.377 54.1472 39.2303 53.7361 38.9556C53.325 38.6809 53.0045 38.2905 52.8153 37.8337C52.6261 37.3768 52.5766 36.8742 52.673 36.3892C52.7695 35.9043 53.0076 35.4588 53.3572 35.1092C53.7069 34.7596 54.1523 34.5215 54.6373 34.425C55.1222 34.3285 55.6249 34.378 56.0817 34.5673C56.5385 34.7565 56.929 35.0769 57.2037 35.488C57.4784 35.8991 57.625 36.3825 57.625 36.877C57.625 37.54 57.3616 38.1759 56.8928 38.6447C56.4239 39.1136 55.788 39.377 55.125 39.377ZM55.125 35.627C54.8778 35.627 54.6361 35.7003 54.4305 35.8376C54.225 35.975 54.0648 36.1702 53.9702 36.3986C53.8755 36.627 53.8508 36.8783 53.899 37.1208C53.9473 37.3633 54.0663 37.586 54.2411 37.7608C54.4159 37.9357 54.6387 38.0547 54.8811 38.1029C55.1236 38.1512 55.3749 38.1264 55.6034 38.0318C55.8318 37.9372 56.027 37.777 56.1643 37.5714C56.3017 37.3659 56.375 37.1242 56.375 36.877C56.375 36.5454 56.2433 36.2275 56.0089 35.9931C55.7745 35.7586 55.4565 35.627 55.125 35.627ZM62.625 33.127H52.625V23.127H62.625V33.127ZM53.875 31.877H61.375V24.377H53.875V31.877Z"
                fill="black"
              />
              <path
                d="M59.5 30.002H60.125V30.627H59.5V30.002ZM58.25 30.002H58.875V30.627H58.25V30.002ZM69.8938 32.502H65.75C65.5842 32.502 65.4253 32.4361 65.3081 32.3189C65.1908 32.2017 65.125 32.0427 65.125 31.877V29.377C65.125 29.2112 65.1908 29.0522 65.3081 28.935C65.4253 28.8178 65.5842 28.752 65.75 28.752H68.9563C69.0835 28.7518 69.2077 28.7905 69.3124 28.8629C69.417 28.9353 69.4971 29.0379 69.5419 29.157L70.4794 31.657C70.515 31.7516 70.5271 31.8534 70.5146 31.9537C70.5022 32.0541 70.4657 32.1499 70.4081 32.233C70.3505 32.3161 70.2736 32.3839 70.184 32.4308C70.0944 32.4776 69.9948 32.5021 69.8938 32.502ZM66.375 31.252H68.9919L68.5231 30.002H66.375V31.252Z"
                fill="white"
              />
              <path
                d="M70.75 37.502H68.875V36.252H69.5V32.6157L67.8169 28.127H64.5V33.127H52V36.252H53.25V37.502H50.75V31.877H63.25V26.877H68.6831L70.75 32.3882V37.502Z"
                fill="black"
              />
              <path d="M57 36.252H65.125V37.502H57V36.252Z" fill="black" />
              <path
                d="M55.125 37.502C55.4702 37.502 55.75 37.2221 55.75 36.877C55.75 36.5318 55.4702 36.252 55.125 36.252C54.7798 36.252 54.5 36.5318 54.5 36.877C54.5 37.2221 54.7798 37.502 55.125 37.502Z"
                fill="black"
              />
              <path
                d="M67 37.502C67.3452 37.502 67.625 37.2221 67.625 36.877C67.625 36.5318 67.3452 36.252 67 36.252C66.6548 36.252 66.375 36.5318 66.375 36.877C66.375 37.2221 66.6548 37.502 67 37.502Z"
                fill="black"
              />
              <path
                d="M67.625 26.2512V9.76244L51.995 1.94744L35.75 9.76869V38.7512C35.75 38.917 35.6842 39.0759 35.5669 39.1931C35.4497 39.3103 35.2908 39.3762 35.125 39.3762C34.9592 39.3762 34.8003 39.3103 34.6831 39.1931C34.5658 39.0759 34.5 38.917 34.5 38.7512V9.37619C34.5001 9.25865 34.5334 9.14353 34.5959 9.04403C34.6585 8.94454 34.7479 8.8647 34.8537 8.81369L51.7288 0.688692C51.8148 0.647327 51.9091 0.626214 52.0046 0.626973C52.1 0.627731 52.194 0.650341 52.2794 0.693067L68.5294 8.81807C68.6331 8.86989 68.7203 8.94953 68.7814 9.0481C68.8424 9.14666 68.8748 9.26026 68.875 9.37619V26.2512H67.625Z"
                fill="black"
              />
              <path d="M43.875 36H43.25V36.625H43.875V36Z" fill="white" />
              <path d="M42.625 36H42V36.625H42.625V36Z" fill="white" />
            </g>
            <path
              d="M4.88133 71L0.861328 57H2.82133L6.02133 68.52L9.42133 57H11.3013L14.7013 68.52L17.9013 57H19.8613L15.8413 71H13.6813L10.3613 59.82L7.04133 71H4.88133ZM28.7699 61H30.5099V71H28.7699V69.28C27.9699 70.5 26.6899 71.26 24.9899 71.26C22.2099 71.26 19.9299 68.96 19.9299 66C19.9299 63.04 22.2099 60.74 24.9899 60.74C26.6899 60.74 27.9699 61.5 28.7699 62.72V61ZM25.2099 69.58C27.2299 69.58 28.7699 68.04 28.7699 66C28.7699 63.96 27.2299 62.42 25.2099 62.42C23.2099 62.42 21.6699 63.96 21.6699 66C21.6699 68.04 23.2099 69.58 25.2099 69.58ZM34.8862 62.68C35.5262 61.28 36.7462 60.82 38.0062 60.82V62.64C36.5062 62.58 34.8862 63.34 34.8862 65.7V71H33.1462V61H34.8862V62.68ZM40.3818 66.8C40.7218 68.6 42.1418 69.62 44.0018 69.62C45.3818 69.62 46.3818 68.98 46.8818 68.16L48.3618 69C47.4818 70.36 45.9618 71.26 43.9618 71.26C40.7418 71.26 38.6018 69 38.6018 66C38.6018 63.04 40.7218 60.74 43.8418 60.74C46.8618 60.74 48.8218 63.22 48.8218 66.02C48.8218 66.28 48.8018 66.54 48.7618 66.8H40.3818ZM43.8418 62.38C41.9618 62.38 40.6618 63.54 40.3818 65.28H47.0618C46.7618 63.3 45.3418 62.38 43.8418 62.38ZM55.802 60.74C58.142 60.74 59.682 62.3 59.682 64.86V71H57.942V64.96C57.942 63.32 57.002 62.4 55.462 62.4C53.862 62.4 52.562 63.34 52.562 65.7V71H50.822V57H52.562V62.44C53.302 61.26 54.402 60.74 55.802 60.74ZM66.811 71.26C63.891 71.26 61.551 68.96 61.551 66C61.551 63.04 63.891 60.74 66.811 60.74C69.731 60.74 72.091 63.04 72.091 66C72.091 68.96 69.731 71.26 66.811 71.26ZM66.811 69.56C68.811 69.56 70.351 68.02 70.351 66C70.351 63.98 68.811 62.44 66.811 62.44C64.831 62.44 63.291 63.98 63.291 66C63.291 68.02 64.831 69.56 66.811 69.56ZM81.0423 61H82.7823V71H81.0423V69.56C80.3023 70.74 79.2023 71.26 77.8023 71.26C75.4623 71.26 73.9223 69.7 73.9223 67.14V61H75.6623V67.04C75.6623 68.68 76.6023 69.6 78.1423 69.6C79.7423 69.6 81.0423 68.66 81.0423 66.3V61ZM86.9118 63.7C86.9118 65.84 92.5118 64.58 92.5118 68.26C92.5118 70.12 90.9118 71.26 88.7718 71.26C86.7718 71.26 85.3718 70.3 84.7918 68.92L86.2918 68.06C86.6118 69.02 87.5318 69.62 88.7718 69.62C89.8318 69.62 90.7518 69.24 90.7518 68.26C90.7518 66.12 85.1518 67.34 85.1518 63.72C85.1518 61.96 86.6718 60.74 88.6918 60.74C90.3318 60.74 91.6518 61.52 92.2918 62.82L90.8318 63.64C90.4518 62.74 89.5718 62.36 88.6918 62.36C87.7918 62.36 86.9118 62.8 86.9118 63.7ZM95.5185 66.8C95.8585 68.6 97.2785 69.62 99.1385 69.62C100.519 69.62 101.519 68.98 102.019 68.16L103.499 69C102.619 70.36 101.099 71.26 99.0985 71.26C95.8785 71.26 93.7385 69 93.7385 66C93.7385 63.04 95.8585 60.74 98.9785 60.74C101.999 60.74 103.959 63.22 103.959 66.02C103.959 66.28 103.939 66.54 103.899 66.8H95.5185ZM98.9785 62.38C97.0985 62.38 95.7985 63.54 95.5185 65.28H102.199C101.899 63.3 100.479 62.38 98.9785 62.38Z"
              fill="#141414"
            />
            <defs>
              <clipPath id="clip0_8244_252296">
                <rect
                  width="40"
                  height="40"
                  fill="white"
                  transform="translate(32)"
                />
              </clipPath>
            </defs>
          </svg>