
<svg width="40" height="40" viewBox="0 0 40 40" fill="none" xmlns="http://www.w3.org/2000/svg">
<g clip-path="url(#clip0_8244_252297)">
<path d="M36.25 9.37695V38.752H32.5V15.627H7.5V38.752H3.125V9.37695L20 1.25195L36.25 9.37695Z" fill="black"/>
<path d="M10 9.37695H30V13.127H10V9.37695Z" fill="white"/>
<path d="M7.5 15.627H32.5V18.127H7.5V15.627Z" fill="white"/>
<path d="M21.25 23.752H30V32.502H21.25V23.752Z" fill="black"/>
<path d="M25.625 23.752H30V32.502H25.625V23.752Z" fill="black"/>
<path d="M24.375 23.752H26.875V26.877H24.375V23.752Z" fill="#C1C1C1"/>
<path d="M25.625 23.752H26.875V26.877H25.625V23.752Z" fill="#2D2D2D"/>
<path d="M5 30.002H13.75V38.752H5V30.002Z" fill="#3E3E3E"/>
<path d="M9.375 30.002H13.75V38.752H9.375V30.002Z" fill="#5B5B5B"/>
<path d="M8.125 30.002H10.625V33.127H8.125V30.002Z" fill="#D0D0D0"/>
<path d="M9.375 30.002H10.625V33.127H9.375V30.002Z" fill="#A5A5A5"/>
<path d="M31.875 32.502V27.502H36.25L38.125 32.502V36.877H19.375V32.502H30H31.875Z" fill="black"/>
<path d="M36.9563 29.377H33.75V31.877H37.8938L36.9563 29.377Z" fill="black"/>
<path d="M33.75 33.127H35V33.752H33.75V33.127ZM20.625 33.752H31.875V34.377H20.625V33.752Z" fill="white"/>
<path d="M35 38.752C36.0355 38.752 36.875 37.9125 36.875 36.877C36.875 35.8414 36.0355 35.002 35 35.002C33.9645 35.002 33.125 35.8414 33.125 36.877C33.125 37.9125 33.9645 38.752 35 38.752Z" fill="black"/>
<path d="M23.125 38.752C24.1605 38.752 25 37.9125 25 36.877C25 35.8414 24.1605 35.002 23.125 35.002C22.0895 35.002 21.25 35.8414 21.25 36.877C21.25 37.9125 22.0895 38.752 23.125 38.752Z" fill="black"/>
<path d="M23.125 37.8145C23.6428 37.8145 24.0625 37.3947 24.0625 36.877C24.0625 36.3592 23.6428 35.9395 23.125 35.9395C22.6072 35.9395 22.1875 36.3592 22.1875 36.877C22.1875 37.3947 22.6072 37.8145 23.125 37.8145Z" fill="#E6E7E8"/>
<path d="M35 37.8145C35.5178 37.8145 35.9375 37.3947 35.9375 36.877C35.9375 36.3592 35.5178 35.9395 35 35.9395C34.4822 35.9395 34.0625 36.3592 34.0625 36.877C34.0625 37.3947 34.4822 37.8145 35 37.8145Z" fill="#E6E7E8"/>
<path d="M8.125 30.627H6.875V15.002H33.125V26.252H31.875V16.252H8.125V30.627Z" fill="black"/>
<path d="M33.125 21.252H6.875V15.002H33.125V21.252ZM8.125 20.002H31.875V16.252H8.125V20.002Z" fill="black"/>
<path d="M6.875 17.502H33.125V18.752H6.875V17.502ZM30.625 13.752H9.375V8.75195H30.625V13.752ZM10.625 12.502H29.375V10.002H10.625V12.502ZM0.625 38.127H39.375V39.377H0.625V38.127Z" fill="black"/>
<path d="M14.375 39.377H4.375V29.377H14.375V39.377ZM5.625 38.127H13.125V30.627H5.625V38.127Z" fill="black"/>
<path d="M35 39.377C34.5055 39.377 34.0222 39.2303 33.6111 38.9556C33.2 38.6809 32.8795 38.2905 32.6903 37.8337C32.5011 37.3768 32.4516 36.8742 32.548 36.3892C32.6445 35.9043 32.8826 35.4588 33.2322 35.1092C33.5819 34.7596 34.0273 34.5215 34.5123 34.425C34.9972 34.3285 35.4999 34.378 35.9567 34.5673C36.4135 34.7565 36.804 35.0769 37.0787 35.488C37.3534 35.8991 37.5 36.3825 37.5 36.877C37.5 37.54 37.2366 38.1759 36.7678 38.6447C36.2989 39.1136 35.663 39.377 35 39.377ZM35 35.627C34.7528 35.627 34.5111 35.7003 34.3055 35.8376C34.1 35.975 33.9398 36.1702 33.8452 36.3986C33.7505 36.627 33.7258 36.8783 33.774 37.1208C33.8222 37.3633 33.9413 37.586 34.1161 37.7608C34.2909 37.9357 34.5137 38.0547 34.7561 38.1029C34.9986 38.1512 35.2499 38.1264 35.4784 38.0318C35.7068 37.9372 35.902 37.777 36.0393 37.5714C36.1767 37.3659 36.25 37.1242 36.25 36.877C36.25 36.5454 36.1183 36.2275 35.8839 35.9931C35.6495 35.7586 35.3315 35.627 35 35.627ZM23.125 39.377C22.6305 39.377 22.1472 39.2303 21.7361 38.9556C21.325 38.6809 21.0045 38.2905 20.8153 37.8337C20.6261 37.3768 20.5766 36.8742 20.673 36.3892C20.7695 35.9043 21.0076 35.4588 21.3572 35.1092C21.7069 34.7596 22.1523 34.5215 22.6373 34.425C23.1222 34.3285 23.6249 34.378 24.0817 34.5673C24.5385 34.7565 24.929 35.0769 25.2037 35.488C25.4784 35.8991 25.625 36.3825 25.625 36.877C25.625 37.54 25.3616 38.1759 24.8928 38.6447C24.4239 39.1136 23.788 39.377 23.125 39.377ZM23.125 35.627C22.8778 35.627 22.6361 35.7003 22.4305 35.8376C22.225 35.975 22.0648 36.1702 21.9702 36.3986C21.8755 36.627 21.8508 36.8783 21.899 37.1208C21.9473 37.3633 22.0663 37.586 22.2411 37.7608C22.4159 37.9357 22.6387 38.0547 22.8811 38.1029C23.1236 38.1512 23.3749 38.1264 23.6034 38.0318C23.8318 37.9372 24.027 37.777 24.1643 37.5714C24.3017 37.3659 24.375 37.1242 24.375 36.877C24.375 36.5454 24.2433 36.2275 24.0089 35.9931C23.7745 35.7586 23.4565 35.627 23.125 35.627ZM30.625 33.127H20.625V23.127H30.625V33.127ZM21.875 31.877H29.375V24.377H21.875V31.877Z" fill="black"/>
<path d="M27.5 30.002H28.125V30.627H27.5V30.002ZM26.25 30.002H26.875V30.627H26.25V30.002ZM37.8938 32.502H33.75C33.5842 32.502 33.4253 32.4361 33.3081 32.3189C33.1908 32.2017 33.125 32.0427 33.125 31.877V29.377C33.125 29.2112 33.1908 29.0522 33.3081 28.935C33.4253 28.8178 33.5842 28.752 33.75 28.752H36.9563C37.0835 28.7518 37.2077 28.7905 37.3124 28.8629C37.417 28.9353 37.4971 29.0379 37.5419 29.157L38.4794 31.657C38.515 31.7516 38.5271 31.8534 38.5146 31.9537C38.5022 32.0541 38.4657 32.1499 38.4081 32.233C38.3505 32.3161 38.2736 32.3839 38.184 32.4308C38.0944 32.4776 37.9948 32.5021 37.8938 32.502ZM34.375 31.252H36.9919L36.5231 30.002H34.375V31.252Z" fill="white"/>
<path d="M38.75 37.502H36.875V36.252H37.5V32.6157L35.8169 28.127H32.5V33.127H20V36.252H21.25V37.502H18.75V31.877H31.25V26.877H36.6831L38.75 32.3882V37.502Z" fill="black"/>
<path d="M25 36.252H33.125V37.502H25V36.252Z" fill="black"/>
<path d="M23.125 37.502C23.4702 37.502 23.75 37.2221 23.75 36.877C23.75 36.5318 23.4702 36.252 23.125 36.252C22.7798 36.252 22.5 36.5318 22.5 36.877C22.5 37.2221 22.7798 37.502 23.125 37.502Z" fill="black"/>
<path d="M35 37.502C35.3452 37.502 35.625 37.2221 35.625 36.877C35.625 36.5318 35.3452 36.252 35 36.252C34.6548 36.252 34.375 36.5318 34.375 36.877C34.375 37.2221 34.6548 37.502 35 37.502Z" fill="black"/>
<path d="M35.625 26.2512V9.76244L19.995 1.94744L3.75 9.76869V38.7512C3.75 38.917 3.68415 39.0759 3.56694 39.1931C3.44973 39.3103 3.29076 39.3762 3.125 39.3762C2.95924 39.3762 2.80027 39.3103 2.68306 39.1931C2.56585 39.0759 2.5 38.917 2.5 38.7512V9.37619C2.50011 9.25865 2.53336 9.14353 2.59593 9.04403C2.6585 8.94454 2.74786 8.8647 2.85375 8.81369L19.7288 0.688692C19.8148 0.647327 19.9091 0.626214 20.0046 0.626973C20.1 0.627731 20.194 0.650341 20.2794 0.693067L36.5294 8.81807C36.6331 8.86989 36.7203 8.94953 36.7814 9.0481C36.8424 9.14666 36.8748 9.26026 36.875 9.37619V26.2512H35.625Z" fill="black"/>
<path d="M11.875 36H11.25V36.625H11.875V36Z" fill="white"/>
<path d="M10.625 36H10V36.625H10.625V36Z" fill="white"/>
</g>
<defs>
<clipPath id="clip0_8244_252297">
<rect width="40" height="40" fill="white"/>
</clipPath>
</defs>
</svg>
